<?xml version="1.0" encoding="UTF-8" standalone="no"?>
<svg width="959px" height="630px" viewBox="0 0 959 630" version="1.1" xmlns="http://www.w3.org/2000/svg" xmlns:xlink="http://www.w3.org/1999/xlink">
    <!-- Generator: Sketch 43.1 (39012) - http://www.bohemiancoding.com/sketch -->
    <title>Shape</title>
    <desc>Created with Sketch.</desc>
    <defs></defs>
    <g id="Page-1" stroke="none" stroke-width="1" fill="none" fill-rule="evenodd">
        <g id="bike" fill-rule="nonzero" fill="#A1A1A1">
            <path d="M369.895,0 C357.641,0 346.515,7.189 341.451,18.316 L246.046,228.178 C232.219,225.195 217.876,223.611 203.171,223.611 C91.145,223.61 0,314.76 0,426.783 C0,538.808 91.145,629.953 203.17,629.953 C315.195,629.953 406.34,538.808 406.34,426.783 C406.34,351.617 365.305,285.853 304.46,250.713 L329.9,194.743 L451.164,445.973 C456.352,456.758 467.259,463.635 479.292,463.635 L555.545,463.635 C572.933,558.128 655.911,629.955 755.355,629.955 C867.381,629.955 958.525,538.808 958.525,426.783 C958.525,314.759 867.381,223.613 755.355,223.613 C732.288,223.613 710.11,227.483 689.427,234.599 L632.484,116.62 C627.234,105.836 616.324,98.96 604.351,98.96 L373.43,98.96 L389.993,62.514 L442.847,62.514 C460.132,62.514 474.105,48.542 474.105,31.257 C474.105,13.972 460.132,0 442.847,0 L369.895,0 Z M565.25,0 C547.965,0 533.993,13.972 533.993,31.257 C533.993,48.542 547.965,62.514 565.25,62.514 L653.83,62.514 C671.116,62.514 685.09,48.542 685.09,31.257 C685.09,13.972 671.115,0 653.83,0 L565.25,0 Z M383.21,161.473 L552.67,161.473 L475,351.627 L383.21,161.473 Z M603.917,201.361 L634.09,263.871 C590.893,296.108 560.895,345.095 553.802,401.121 L522.324,401.121 L603.917,201.361 L603.917,201.361 Z M203.17,286.126 C208.62,286.126 213.993,286.449 219.283,287.056 L159.1,419.437 C151.942,435.159 158.848,453.663 174.602,460.82 C178.822,462.76 183.198,463.634 187.479,463.634 C199.389,463.634 210.735,456.821 216.017,445.319 L278.42,308.006 C317.703,332.984 343.828,376.891 343.828,426.781 C343.828,504.329 280.688,567.438 203.17,567.438 C125.59,567.438 62.512,504.328 62.512,426.78 C62.512,349.232 125.589,286.123 203.17,286.123 L203.17,286.126 Z M755.356,286.126 C832.904,286.126 896.012,349.236 896.012,426.783 C896.012,504.331 832.872,567.44 755.356,567.44 C690.528,567.44 635.836,523.37 619.606,463.634 L750.168,463.634 C760.92,463.634 770.921,458.101 776.61,448.974 C782.36,439.879 782.957,428.47 778.33,418.781 L716.882,291.475 C729.114,287.992 742.02,286.125 755.356,286.125 L755.356,286.126 Z M661.994,321.676 L700.344,401.121 L617.052,401.121 C622.852,369.777 639.082,342.051 661.994,321.676 Z" id="Shape"></path>
        </g>
    </g>
</svg>