<?xml version="1.0" encoding="UTF-8" standalone="no"?>
<svg width="460px" height="599px" viewBox="0 0 460 599" version="1.1" xmlns="http://www.w3.org/2000/svg" xmlns:xlink="http://www.w3.org/1999/xlink">
    <!-- Generator: Sketch 43.1 (39012) - http://www.bohemiancoding.com/sketch -->
    <title>germany</title>
    <desc>Created with Sketch.</desc>
    <defs></defs>
    <g id="Page-1" stroke="none" stroke-width="1" fill="none" fill-rule="evenodd">
        <g id="germany" transform="translate(1.000000, 1.000000)">
            <path d="M44.43889,113.895592 L44.80472,114.350627 L45.15429,115.079928 L44.70717,114.84306 L44.06087,114.138693 L43.63407,113.989093 L43.13004,114.070126 L42.39026,114.425427 L42.0854,114.512694 L41.18709,114.104409 L40.50015,113.206808 L40.3091,112.306091 L40.89036,111.897807 L44.69497,110.831906 L46.5607,110.701006 L47.23138,111.897807 L46.10951,112.047407 L44.37386,112.739308 L43.45116,112.945008 L43.45116,113.415625 L44.00803,113.615093 L44.43889,113.895592 Z M61.58403,105.574083 L51.0116,106.664918 L52.86107,105.829651 L59.66547,105.02555 L61.58403,105.574083 Z M74.6319,102.800247 L74.5506,102.887514 L74.4124,102.884397 L72.08736,103.735248 L65.98616,104.470782 L63.96598,103.959648 L66.25444,102.734797 L68.94937,102.323396 L74.60751,102.435597 L74.6319,102.800247 Z M78.42432,101.958746 L79.07061,102.435597 L78.91209,102.734797 L78.74543,102.856347 L78.35521,102.959198 L76.35535,102.39508 L75.6237,102.435597 L76.44884,101.908879 L77.4691,101.765512 L78.42432,101.958746 Z M115.84039,102.61948 L115.0437,103.323848 L114.79981,103.482798 L114.36895,103.379948 L114.09255,103.202298 L113.79175,103.164897 L113.26333,103.482798 L113.26333,102.959198 L113.88931,101.971213 L114.87298,101.578512 L115.99485,101.743696 L117.05169,102.435597 L116.33629,102.435597 L115.84039,102.61948 Z M88.64311,100.677795 L88.56995,100.752595 L88.448,100.749478 L88.31387,100.818045 L84.67184,100.715195 L82.98497,101.092312 L82.85083,102.435597 L81.38752,102.501047 L80.9404,102.136396 L80.76968,101.104779 L81.02169,100.225877 L81.63954,99.873694 L83.15976,99.82071 L87.61473,99.783311 L88.61872,100.344311 L88.64311,100.677795 Z M97.20349,98.729876 L96.08568,99.37191 L94.6874,99.911094 L93.25254,99.989011 L92.02905,99.253476 L91.5738,99.845644 L91.13481,100.151077 L90.71207,100.144844 L90.32592,99.82071 L91.59412,98.374576 L93.69154,97.947592 L97.91482,98.209392 L97.91482,98.729876 L97.20349,98.729876 Z M103.71522,97.489442 L105.0444,98.228092 L104.56882,98.143942 L104.03228,98.209392 L101.9308,97.763708 L101.03249,97.807342 L100.95932,98.729876 L99.99597,98.100309 L100.21547,97.614108 L101.10565,97.311791 L102.15029,97.202707 L102.97137,97.274391 L103.71522,97.489442 Z M281.97508,79.855322 L280.49551,83.844659 L279.96709,84.558377 L279.34925,84.577077 L279.3086,84.044126 L279.6541,82.707075 L279.43461,81.818824 L279.02,81.809474 L278.74766,82.460858 L278.97122,83.514293 L278.23957,84.072177 L277.43881,84.034776 L276.63399,83.595326 L275.86981,82.990692 L276.60554,81.248473 L278.41435,79.842855 L280.48331,79.228871 L281.97508,79.855322 Z M284.05623,77.237319 L283.77576,77.237319 L283.50343,75.847284 L283.50749,75.666517 L283.77576,75.099283 L287.16984,73.621982 L287.86897,73.011114 L287.0235,74.089482 L284.71472,76.003118 L284.05623,77.237319 Z M406.25904,76.143368 L407.77926,77.003568 L416.55913,85.727128 L417.41273,86.300596 L417.44118,86.313062 L417.44231,86.313527 L416.59273,88.378978 L416.17975,88.63626 L415.70482,88.762921 L416.57724,89.736631 L416.97996,90.932167 L411.3156,91.524134 L410.20185,91.374535 L409.36452,90.838467 L408.202,92.029036 L406.74275,92.801969 L403.8771,93.496987 L400.71878,93.543736 L398.96281,93.066887 L398.04824,91.929302 L398.69453,91.711135 L399.73104,90.991184 L401.34069,90.673283 L403.07227,89.766332 L403.53566,89.311299 L403.90148,87.098463 L402.04796,83.913226 L402.17803,81.949724 L404.69411,82.089974 L405.58429,82.423458 L405.24285,82.990692 L405.3648,83.417676 L404.96645,84.913677 L404.90141,86.129178 L405.68185,84.866928 L406.32408,84.55526 L408.3402,84.558377 L408.08005,84.74226 L407.87681,84.941727 L407.74268,85.222227 L407.66545,85.652328 L409.36452,86.129178 L408.9621,85.134961 L409.60027,83.252492 L409.51085,81.211073 L408.81984,79.936355 L407.66545,80.372689 L407.25897,79.126021 L406.71429,78.09752 L406.03548,77.284069 L405.24285,76.713718 L404.25512,76.498668 L403.25925,76.695018 L402.74709,77.280952 L403.19422,78.23777 L403.19422,78.808121 L402.76742,79.023171 L402.31623,79.493788 L401.9504,80.089072 L401.80407,80.659422 L401.49921,80.821489 L399.75543,81.41989 L399.86112,80.391389 L400.23507,79.755588 L400.63342,79.303671 L400.77162,78.808121 L400.51148,77.873119 L400.13752,77.77027 L399.70666,78.050769 L398.10921,78.69592 L397.37349,79.584172 L396.67028,80.210622 L395.66629,79.855322 L396.06464,78.371787 L397.42226,75.847284 L397.7068,73.843265 L397.2678,72.665164 L395.2273,70.729712 L394.60945,69.869511 L395.07284,69.003077 L395.84107,68.270659 L396.76784,67.943409 L397.7068,68.298709 L398.14579,69.040476 L399.16198,71.543162 L399.75543,72.534263 L401.08054,73.752882 L404.373,75.488867 L406.25904,76.143368 Z M102.47547,67.781342 L102.22752,67.952759 L102.15436,67.634858 L101.94706,67.575641 L101.78853,67.232808 L101.56497,66.995941 L101.26418,66.746607 L101.99583,66.690507 L102.30069,66.995941 L102.47547,67.781342 Z M103.93879,67.055157 L103.15022,67.276441 L102.88601,66.871274 L103.75994,66.64064 L103.93879,67.055157 Z M151.6143,45.718434 L149.44372,45.868034 L148.41534,45.53455 L147.86253,44.671233 L148.40721,44.409432 L148.49664,43.976216 L148.26901,43.511831 L147.86253,43.153414 L149.44372,41.79143 L151.1997,41.071479 L153.17517,40.968628 L155.37014,41.489113 L155.13845,41.582612 L155.0287,41.813246 L155.00431,42.15608 L155.05715,42.579947 L154.13852,43.371581 L153.50441,44.315933 L152.78089,45.17925 L151.6143,45.718434 Z M269.8743,44.933033 L272.80092,49.904122 L266.52088,48.956654 L265.60631,49.424155 L265.82987,49.735822 L266.04937,49.872956 L264.04138,49.991389 L262.73252,49.795039 L262.16752,49.162355 L262.26508,47.604019 L262.03339,47.005619 L261.31799,46.765635 L260.00914,46.728235 L259.47259,46.880952 L259.09863,47.335985 L258.72874,47.335985 L258.56209,46.774985 L258.39137,46.457085 L258.12309,46.444618 L257.52964,46.774985 L257.39144,45.718434 L258.78971,42.623581 L260.74892,40.912529 L263.16339,40.547879 L267.42325,42.19348 L268.69959,43.175231 L269.09387,43.642732 L269.8743,44.933033 Z M140.71669,43.156531 L139.29403,43.885832 L138.17216,43.867132 L137.53806,43.362231 L137.0259,42.255813 L137.33482,41.021612 L138.23719,40.398278 L138.60302,40.242445 L138.95665,40.036744 L142.17188,38.81501 L142.2735,39.644044 L141.87108,41.52028 L140.71669,43.156531 Z M364.85544,35.713923 L364.84731,36.564774 L364.81886,36.480624 L364.67659,36.321674 L364.47742,36.302974 L364.47742,37.350175 L364.16443,37.350175 L364.16443,35.785606 L362.94094,36.683208 L362.65234,37.936108 L362.60357,39.419643 L362.12393,41.009146 L361.7581,41.436129 L361.05083,41.98778 L360.75004,42.579947 L360.57119,43.327948 L360.4777,44.094649 L360.4086,45.718434 L360.06716,45.718434 L360.06716,44.671233 L360.20943,42.910314 L361.77436,37.880008 L362.11173,35.94144 L362.47756,35.405373 L363.29458,35.212139 L363.98558,35.180972 L364.54652,35.265123 L364.85544,35.713923 Z M376.52536,31.771335 L376.13107,32.855936 L376.28147,34.214805 L376.70827,35.302522 L377.36676,36.14714 L378.20816,36.779824 L380.29338,37.412508 L386.76854,36.302974 L388.99196,36.739308 L390.49998,38.229075 L390.82923,40.201928 L389.52444,42.056347 L387.30915,43.380931 L386.21167,44.334632 L385.74422,45.456633 L385.92714,46.743818 L386.36613,48.083987 L386.92707,49.224687 L387.44735,49.904122 L388.47167,50.384089 L390.83736,50.89834 L391.87794,51.568424 L393.20711,53.750093 L394.06071,54.753661 L395.2842,55.180645 L394.61758,55.610745 L393.96722,56.336929 L393.47132,57.331147 L393.27621,58.580931 L393.27621,59.796433 L393.12175,60.2764 L392.60146,60.22965 L391.51211,59.8837 L392.09743,59.8837 L392.56082,59.649949 L392.76405,59.135699 L392.56082,58.319131 L392.21938,58.319131 L391.70722,58.817799 L390.93898,59.079599 L390.13416,59.088949 L389.52444,58.836499 L389.52444,58.319131 L391.37797,57.602297 L392.14621,57.053763 L392.56082,56.181095 L389.96344,56.340046 L388.80498,56.667296 L387.81725,57.27193 L390.57315,55.532828 L391.51211,55.180645 L391.51211,54.657044 L390.17074,54.541727 L389.4716,54.60406 L388.98383,54.918844 L388.30908,55.626329 L387.88635,55.451795 L387.5002,54.946894 L386.93519,54.657044 L381.95993,55.180645 L381.06569,55.688661 L378.4236,57.783064 L377.86672,58.580931 L377.28546,59.7528 L376.06197,59.983433 L374.96449,60.5008 L374.76938,62.548453 L375.45226,62.024852 L375.46445,61.635268 L375.35877,61.535535 L375.22057,61.529301 L375.13927,61.454501 L377.52529,61.080501 L377.86672,61.220751 L378.23255,62.969203 L378.13093,63.773304 L377.34237,64.119254 L375.91564,63.916671 L374.33445,63.41177 L372.56222,62.364569 L372.96056,61.959402 L373.22884,61.055568 L373.74506,59.8837 L373.01341,60.2764 L372.68416,60.581834 L372.3793,60.980767 L372.57848,61.192701 L372.72074,61.454501 L371.72081,61.370352 L371.19646,61.466968 L370.83063,61.741235 L370.38351,61.953169 L369.88761,61.650851 L369.42829,61.205168 L369.11124,60.980767 L368.37959,60.856101 L367.49753,60.47275 L366.95286,59.815133 L367.23332,58.836499 L366.50573,58.640149 L364.97739,59.313349 L364.47742,59.366332 L364.13598,58.774165 L364.44084,58.256798 L365.10746,58.032398 L365.86757,58.319131 L365.86757,57.839164 L362.77022,55.704245 L363.45717,54.058643 L364.44084,52.702892 L365.70904,52.188641 L367.23332,53.086242 L367.57476,52.562642 L368.15602,53.067542 L368.84703,52.955342 L370.33067,52.042157 L369.54617,51.964241 L368.95272,51.44999 L368.70883,50.70199 L368.94052,49.904122 L368.94052,49.424155 L368.25764,49.364938 L367.88775,48.994054 L367.5707,48.579537 L367.0626,48.383187 L364.84325,48.906787 L365.70904,47.311052 L366.083,46.899651 L367.4325,46.600452 L368.94052,45.886734 L369.96484,45.718434 L369.96484,45.194833 L370.02581,45.17925 L370.33067,45.026533 L370.64365,44.671233 L369.25757,44.194383 L368.65192,43.832848 L368.25764,43.153414 L368.42836,42.972648 L368.58689,42.841748 L368.67225,42.59553 L368.62754,42.056347 L367.15609,42.57683 L366.26185,42.667214 L365.86757,42.318147 L365.75782,42.075047 L365.52613,42.01583 L365.29444,41.83818 L365.18469,41.249129 L365.12372,40.585278 L364.93674,40.186345 L364.61156,40.011811 L364.16443,40.014928 L365.3107,39.519377 L369.13563,39.014476 L369.96484,39.182777 L370.23311,39.640927 L370.81437,39.849744 L371.3997,40.242445 L371.66797,41.249129 L371.87934,41.794546 L372.26143,41.507813 L372.44841,40.635145 L372.03787,39.444577 L372.75733,38.556326 L373.66783,37.705475 L374.61086,37.063441 L375.45226,36.779824 L374.89539,38.341276 L374.52143,39.014476 L374.0865,39.444577 L374.40355,39.435227 L374.67589,39.481977 L374.91571,39.659627 L375.13927,40.014928 L374.88726,40.379578 L374.42794,41.489113 L375.1474,41.529629 L375.7246,41.342629 L376.17172,40.859545 L376.47251,40.014928 L376.04978,39.902728 L375.5742,39.556777 L375.13927,39.444577 L375.13927,38.920977 L375.81809,38.350625 L376.37496,39.37601 L377.25701,40.373345 L377.8464,41.420546 L377.52529,42.579947 L378.51302,43.857782 L379.75684,44.259833 L382.32983,44.200615 L381.95993,43.627149 L382.43958,42.614231 L382.68346,42.29633 L383.01271,42.056347 L383.01271,41.489113 L382.62249,40.426328 L382.35015,39.880911 L381.95993,39.444577 L381.95993,38.920977 L382.2526,38.727743 L382.41519,38.565676 L382.61842,38.434776 L383.01271,38.350625 L383.01271,37.880008 L382.3908,37.911175 L381.98839,38.241542 L381.67134,38.649826 L381.30551,38.920977 L380.7649,39.005126 L379.04957,38.920977 L378.78129,38.677876 L378.51302,38.135576 L378.17158,37.593275 L377.69601,37.350175 L376.94403,37.206808 L376.6351,36.826574 L376.46438,36.327907 L376.13107,35.785606 L375.54981,35.022022 L375.44007,34.713471 L374.76938,35.212139 L374.37916,35.579906 L373.57434,36.574124 L372.40369,37.206808 L371.55416,38.032725 L370.65178,38.634242 L369.65185,38.350625 L369.47707,37.443674 L369.8307,36.031823 L370.48106,34.738405 L371.18427,34.164938 L371.33466,33.840804 L371.5501,33.117737 L371.65984,32.404019 L371.51351,32.076769 L369.28196,32.594136 L368.55031,33.04917 L368.22919,32.96502 L368.25764,32.076769 L368.53811,31.559401 L369.06653,31.048268 L369.66811,30.6618 L376.52129,28.888415 L377.9155,28.869715 L379.23248,29.508633 L379.23248,29.982367 L378.46424,30.5309 L377.4318,31.060735 L376.52536,31.771335 Z M125.27875,27.214763 L125.20152,27.298913 L125.05926,27.280213 L124.92105,27.370597 L124.36825,27.875498 L123.86422,28.458314 L126.35998,32.644003 L127.31113,33.117737 L126.62825,33.641337 L124.92918,34.189871 L123.75853,33.23617 L122.81551,31.709002 L121.82371,30.505967 L123.27076,28.081198 L124.16501,27.205414 L125.26249,26.846997 L125.27875,27.214763 Z M135.93654,28.411565 L135.52194,28.935165 L134.83906,29.131516 L133.99359,29.041132 L133.22941,28.779332 L132.79855,28.458314 L131.49783,28.897766 L129.88006,28.455198 L126.96969,26.846997 L127.95336,25.241911 L129.0793,24.26951 L130.44506,23.786426 L132.11567,23.661759 L134.89596,23.81136 L136.03003,24.42846 L136.92021,25.799795 L136.92021,26.323396 L136.50561,26.940496 L135.93654,28.411565 Z M152.42286,12.821452 L156.34617,14.246393 L166.93908,16.462969 L168.0025,17.891868 L168.51873,19.870954 L173.04601,20.199483 L174.99218,19.455346 L176.44277,18.837872 L178.29601,19.768042 L179.75867,19.529055 L182.73407,18.192003 L184.90059,16.714702 L186.17692,15.24675 L186.33951,18.005003 L188.75804,18.799754 L191.82693,18.943121 L193.90402,19.762805 L196.0746,20.847406 L197.77773,22.923109 L199.65971,23.437359 L201.93191,22.661308 L202.91558,20.997007 L204.53742,21.891491 L205.68368,23.184909 L206.36656,25.799795 L208.06969,27.887964 L206.15113,28.000164 L204.47645,28.928932 L206.97627,29.608366 L208.83387,30.057167 L209.00459,32.662703 L208.75257,37.350175 L208.15912,39.790527 L207.04944,41.489113 L205.4398,42.829281 L203.42774,43.829732 L201.26529,44.462416 L199.17194,44.671233 L201.33033,46.204635 L213.38639,43.627149 L217.3414,46.288784 L216.34147,48.018537 L216.99996,50.187739 L216.0041,52.166825 L214.23999,53.086242 L214.92694,55.295961 L217.3414,53.086242 L218.00396,50.546156 L220.75173,49.424155 L222.024,48.224237 L225.18231,47.812836 L229.30398,50.471356 L237.18147,53.609843 L241.63238,57.377897 L243.68508,57.839164 L245.97354,57.462047 L247.65635,56.523929 L250.50981,54.133443 L252.15603,53.179742 L253.87542,52.528358 L258.04586,52.042157 L255.89967,52.615625 L257.63126,52.709125 L262.30979,51.50609 L263.87472,52.042157 L262.02119,53.909043 L260.43187,54.133443 L261.4318,58.434448 L261.45619,60.849867 L261.82608,64.359238 L261.13101,66.366373 L254.63147,70.916712 L252.62754,73.235514 L249.73344,74.376216 L248.22948,74.142465 L245.26221,77.246669 L245.4126,79.733772 L247.09948,81.557024 L248.46117,81.949724 L250.39193,81.768957 L251.29024,83.657659 L252.99337,84.605127 L255.3428,82.716425 L257.1191,82.242691 L259.77745,80.949273 L265.85019,80.219972 L266.95987,81.887391 L269.0898,82.866025 L269.13045,84.997828 L271.362,86.219562 L273.79679,84.558377 L274.99996,86.129178 L277.08111,86.129178 L279.02,88.560181 L280.53615,86.749396 L280.70281,83.988026 L281.97508,82.990692 L283.37335,79.855322 L284.73911,79.284971 L286.64142,76.573468 L288.04376,75.678984 L288.17789,73.581465 L289.96639,70.704779 L291.55571,69.710561 L293.50679,69.45811 L297.67723,70.125078 L309.5829,67.818741 L311.45675,66.734141 L311.71283,68.928276 L311.52585,71.056962 L311.63153,72.867748 L312.79812,74.101949 L312.06646,71.184746 L313.76147,68.809843 L312.11524,68.298709 L314.18827,65.577856 L316.3873,62.959853 L317.74493,62.377036 L321.50889,60.528851 L323.40307,59.098299 L325.94354,55.180645 L328.94739,51.28169 L331.3334,47.335985 L332.12603,45.325733 L333.71942,44.200615 L334.44294,46.207751 L336.59726,46.999385 L347.96638,46.999385 L349.84024,47.812836 L352.42542,47.541686 L351.82384,49.424155 L345.19828,49.262088 L343.06429,48.542137 L341.35709,48.53902 L339.52389,49.424155 L337.74759,49.449088 L336.42654,50.390322 L334.72747,51.665041 L333.37798,53.086242 L331.57729,51.721141 L329.76847,51.568424 L328.28077,52.805742 L328.232,55.180645 L326.8703,54.657044 L326.61422,57.003897 L325.16311,57.839164 L325.93134,59.702933 L327.6548,62.342753 L329.93919,62.024852 L328.57343,61.791101 L327.8743,60.08005 L329.60182,58.319131 L330.80905,57.462047 L331.80898,55.535944 L335.05266,54.133443 L335.73553,52.562642 L338.15813,52.958458 L340.88151,51.568424 L341.64569,49.916589 L341.3449,52.129424 L342.6944,51.721141 L344.3203,52.042157 L345.92994,52.129424 L347.05994,53.201559 L348.27937,54.236293 L349.74268,54.189543 L351.23445,52.992742 L352.19779,50.99184 L353.47413,49.860489 L355.45773,48.710437 L357.44133,48.046586 L358.05104,49.848021 L359.01845,51.568424 L361.1809,52.571992 L360.83133,54.597827 L362.45724,57.839164 L362.74177,60.151733 L365.52613,60.413533 L364.16443,61.454501 L365.79847,61.314251 L368.40804,62.651303 L370.14775,63.025303 L373.07438,66.699857 L374.42794,67.775108 L373.06218,68.822309 L376.17172,67.955875 L376.13107,69.869511 L377.86672,69.869511 L378.86259,72.010663 L380.23241,74.058316 L382.32983,74.62555 L381.35022,72.87398 L387.10591,70.916712 L388.58549,70.299611 L391.13815,68.72881 L392.56082,68.298709 L391.87794,69.869511 L393.40222,70.580111 L397.36536,73.581465 L396.6459,75.227067 L395.62158,78.050769 L394.26801,78.808121 L396.31665,80.902523 L398.5482,82.423458 L399.41399,84.081527 L400.73097,85.334428 L402.25526,85.960879 L401.46263,88.270331 L397.88565,90.944434 L397.81248,92.864303 L399.67414,93.478286 L401.14558,95.563339 L402.48695,96.11499 L406.16149,98.910643 L407.81584,99.253476 L410.02301,100.257044 L411.64484,101.029979 L416.26647,101.528646 L417.67288,101.142178 L418.64435,99.845644 L420.16051,100.624812 L419.91256,102.435597 L417.57532,103.959648 L418.93701,104.520649 L420.19081,106.740934 L420.73801,109.43249 L421.78594,112.409035 L421.74464,115.967431 L422.14214,119.244796 L423.35526,120.962643 L424.92458,124.180636 L425.44597,128.146723 L426.49209,132.610747 L426.90688,134.699475 L427.09272,136.840846 L428.35747,138.350888 L427.70703,141.26806 L426.31839,142.716751 L425.82281,144.672087 L426.3029,147.001471 L424.9091,152.445935 L424.09862,154.47054 L422.56544,155.956833 L419.62296,158.12789 L416.5824,159.600329 L414.16648,161.26474 L415.07503,165.228849 L414.98211,167.635416 L413.13919,169.634293 L414.57945,171.344223 L416.73727,171.724207 L419.37001,173.928909 L420.73284,174.607735 L426.03963,178.251232 L428.52266,182.239088 L429.9939,183.12176 L431.429,184.954394 L434.41794,186.060703 L437.31597,189.103909 L439.15688,190.600725 L437.75791,193.349675 L437.37074,195.128872 L438.53225,196.741827 L437.70629,198.538837 L436.49832,200.337826 L433.91204,202.477217 L434.1908,205.519071 L435.37812,208.861747 L436.42605,211.090198 L437.24685,213.668946 L438.94006,214.488287 L440.35968,214.799003 L441.75865,215.374917 L442.5175,218.288132 L441.54183,219.978271 L442.07354,222.139432 L441.2321,225.51971 L444.97988,228.9178 L443.679,230.651479 L443.2144,232.765142 L442.13549,234.619546 L441.69154,240.040261 L440.49906,242.917851 L436.71514,246.860189 L436.20924,249.811006 L437.93343,251.600099 L438.82133,254.503417 L439.33756,256.450837 L440.46292,257.709536 L442.88918,259.635187 L444.02487,262.902656 L444.10746,264.919345 L442.54847,267.923596 L442.25107,269.960565 L443.51897,271.87583 L446.7815,272.926725 L448.97546,274.280419 L451.31911,274.945391 L453.22914,276.049722 L454.66941,278.034744 L454.43221,281.012398 L454.73135,284.258968 L455.08755,286.232116 L456.01159,287.793615 L457.14212,289.074084 L457.87,290.576209 L457.61188,292.798722 L457.14212,294.870825 L456.46587,296.911262 L456.05805,299.060549 L456.00126,300.996094 L455.18047,302.84456 L454.81395,305.601427 L452.43416,311.948354 L449.91498,317.75499 L448.13917,319.670746 L447.42678,322.227724 L446.63696,324.282015 L445.67679,325.710915 L443.78741,325.885074 L441.93416,325.48134 L440.02413,324.072231 L437.57723,323.213309 L437.51012,321.269847 L438.35673,319.342218 L438.37738,317.458128 L435.0116,318.5585 L435.31101,316.084643 L435.7911,314.010561 L434.65024,311.948354 L432.68859,311.152761 L431.429,309.646677 L430.03004,309.88021 L428.21809,309.781255 L426.81912,310.380918 L425.39951,309.666468 L422.90098,308.32069 L421.31101,308.564118 L420.11338,309.743652 L419.41131,311.948354 L421.12517,313.313923 L422.84936,316.171722 L424.69228,316.698159 L426.02414,317.446254 L425.72473,319.354092 L424.25865,320.561334 L420.34051,320.260513 L418.54405,320.624665 L417.0883,322.481047 L408.6945,326.506507 L405.90689,326.340264 L404.39436,326.918157 L403.11928,328.240186 L401.58094,328.204562 L400.97179,330.148024 L400.13035,331.67192 L398.68492,332.550634 L395.49466,332.479387 L392.51604,333.271021 L387.0673,333.433307 L384.80108,333.848914 L382.75683,335.052198 L383.13884,337.260858 L381.64179,338.713506 L381.08943,340.423436 L379.37556,342.232321 L377.33132,341.923583 L376.29887,340.368022 L373.07763,341.840462 L372.26716,343.87892 L370.3881,344.041204 L368.60713,343.399981 L366.94489,347.742094 L364.99873,349.911173 L362.36598,349.760762 L360.95669,350.235742 L359.55256,350.362404 L357.89548,349.962628 L357.15728,353.366655 L356.12484,355.583232 L354.63295,357.024006 L352.92425,356.92901 L348.29888,354.170164 L346.72956,354.593689 L344.72661,354.637228 L343.27086,355.547608 L342.16614,357.225872 L338.2893,357.348575 L334.55184,357.62169 L332.53856,358.203541 L331.15508,359.367243 L330.38075,360.954469 L328.94564,362.510031 L327.47957,363.317498 L325.39402,366.606738 L323.86084,368.174174 L322.74063,370.632198 L322.31733,372.714196 L322.75612,374.483498 L321.20745,375.556163 L320.10273,372.670656 L319.54004,371.03989 L318.48695,369.824731 L317.23252,368.098968 L315.94713,367.394414 L315.76645,365.482617 L314.51202,364.105173 L312.11597,363.931316 L312.41099,365.700317 L312.50391,367.774398 L311.02751,369.389332 L314.01129,371.815691 L315.23474,373.13772 L316.17943,374.903064 L315.97294,377.796488 L316.43754,380.104101 L317.94491,381.196557 L319.11158,382.570041 L319.38518,384.537253 L326.9427,388.535006 L329.59609,389.469134 L330.56659,391.38093 L330.16393,393.245229 L332.20818,394.43268 L333.07544,396.748211 L331.5216,400.029534 L330.15361,400.908248 L329.82323,403.595847 L328.86821,405.654095 L326.80332,406.524893 L326.46261,408.484188 L328.01128,410.942211 L329.49284,412.105914 L331.15508,412.897548 L332.2598,414.069167 L331.87263,416.024504 L332.63665,417.726517 L334.35567,418.957508 L334.939,421.486779 L335.46039,423.30358 L336.70965,425.128296 L338.17057,425.524114 L338.38222,429.327916 L339.19785,431.67907 L342.47587,433.575034 L345.11894,438.285258 L346.89991,439.464792 L349.84239,439.896233 L351.24136,438.566288 L353.15139,439.092724 L354.72071,440.133724 L356.12484,441.625954 L357.27085,442.611539 L359.16023,445.968068 L364.46701,452.716749 L365.9176,455.511218 L367.33206,456.342434 L370.35197,456.484928 L371.96259,457.403223 L373.48028,459.449598 L375.60197,461.626592 L376.19046,465.109783 L378.34311,467.643012 L379.92276,468.786924 L381.60565,468.019039 L382.77232,466.855336 L384.79591,467.643012 L386.49429,468.802756 L387.52674,470.148534 L388.83795,472.737178 L390.63441,474.047333 L392.49539,474.344195 L394.35896,476.572646 L396.76973,481.441196 L396.2535,485.656649 L396.92976,487.354704 L397.00719,489.452535 L397.27047,491.926392 L397.07946,494.317126 L395.9128,497.21055 L393.82725,498.334671 L392.78964,501.212261 L390.63441,500.155429 L389.05992,498.346545 L383.00978,496.395167 L381.33721,496.62474 L379.70595,497.248152 L379.36524,500.206885 L379.79887,502.364089 L378.89031,504.517333 L378.89031,507.392945 L378.33795,509.11277 L377.95595,511.133416 L372.37557,516.688709 L370.69784,517.648566 L363.81657,518.877578 L358.63885,520.983325 L355.97513,523.399789 L354.36451,524.320063 L350.89032,525.695528 L349.68236,526.619761 L348.76864,528.096158 L346.13074,530.292943 L345.21702,531.692157 L343.9626,532.481812 L344.11747,534.524228 L345.02602,536.202492 L348.54151,539.986504 L349.29003,541.696434 L349.70817,543.432092 L351.30847,544.77985 L352.71776,546.074171 L355.25242,550.978345 L356.33133,552.640777 L353.34239,558.221798 L352.86746,560.307754 L351.60788,562.346212 L355.20596,563.739489 L357.21923,563.030976 L358.61304,563.642514 L360.203,566.142098 L360.73988,568.235971 L360.6005,570.092353 L359.88295,571.776555 L358.91245,573.033274 L359.00537,574.8382 L358.40655,577.612878 L358.8505,579.364369 L357.44121,581.759063 L355.96997,581.594798 L354.55551,581.576986 L351.13811,579.57811 L348.8564,576.967696 L347.19416,576.302724 L345.96039,575.269641 L345.69711,573.379614 L346.30626,571.604375 L347.66909,570.903778 L345.38222,569.023647 L345.11378,566.688326 L341.45375,566.055019 L339.67278,566.055019 L337.89181,566.498334 L335.19338,568.610689 L333.93753,569.409569 L331.85715,569.595603 L329.66836,567.998481 L328.47072,565.237657 L325.45597,565.409837 L321.72367,564.915065 L319.5194,565.680972 L318.20819,564.463834 L318.86895,562.864733 L316.66468,563.371379 L316.49949,565.255468 L317.38223,568.319092 L315.72515,571.420319 L303.852,570.9869 L299.66026,571.87353 L298.59684,573.524087 L295.26719,573.102542 L291.19935,573.08473 L289.02088,572.633499 L286.53268,574.078232 L285.79965,576.662917 L284.63814,578.420345 L281.21042,579.271352 L278.85127,578.725124 L275.3616,581.818435 L276.70894,582.93266 L275.47001,584.054801 L273.30187,584.108237 L271.40732,585.351103 L270.03417,587.072907 L267.7473,587.448934 L267.8557,585.366935 L265.52753,585.26996 L262.265,587.621114 L256.08063,587.852667 L254.87267,586.392101 L255.09981,584.638631 L252.60645,581.844163 L250.03565,580.605255 L251.30556,578.855744 L250.04598,577.120086 L248.64701,577.280392 L246.63374,578.238269 L245.15734,578.424303 L237.52238,574.699664 L235.62268,575.18454 L234.61088,576.651043 L231.26059,576.951864 L229.81,575.926698 L230.21265,574.113855 L228.59687,573.569606 L228.35425,575.382449 L228.11678,580.001635 L229.51575,581.56907 L229.73256,584.159693 L229.27829,585.881498 L228.55041,587.431122 L227.29082,588.881791 L225.7215,589.625928 L224.31221,592.432271 L222.43832,594.621139 L220.20307,596.052018 L215.89705,596.9039 L216.44496,595.171325 L217.57549,590.61547 L216.69275,588.719506 L214.49879,589.135114 L212.91915,589.659572 L211.29821,590.263193 L210.49806,588.216819 L210.95234,585.835979 L208.28862,580.391514 L206.83803,581.262312 L205.74364,578.978447 L204.59762,577.612878 L203.10057,577.00332 L201.61385,576.880616 L200.11163,576.302724 L197.82476,576.271059 L197.56665,573.623042 L196.27609,572.69683 L194.80485,573.183685 L193.71562,574.497797 L192.37344,577.062692 L191.01061,577.735581 L187.81002,577.792975 L184.88916,576.960973 L170.85722,567.972752 L168.91622,567.507668 L167.04749,567.509647 L163.60944,566.415212 L158.03938,565.766072 L156.29971,567.048519 L154.4826,567.650162 L152.52611,567.842133 L149.85207,566.387505 L148.73186,563.598973 L147.1006,562.615368 L145.3093,564.054163 L143.07921,564.566747 L142.45974,562.975561 L143.07921,560.8144 L141.84027,559.771422 L140.56004,558.15451 L138.98039,557.669634 L138.10281,559.759548 L137.39042,557.46183 L135.14485,556.40104 L134.06078,558.475121 L131.37125,559.029266 L129.74515,560.284006 L129.136,562.37392 L127.33954,563.60689 L127.004,565.312862 L127.59249,567.094039 L129.12052,568.144933 L131.04087,568.71491 L132.47081,567.80651 L135.64559,566.989147 L137.14264,567.452253 L137.31299,569.312594 L136.29603,570.678163 L135.93983,572.388093 L134.12273,570.88003 L131.8565,570.290262 L130.32848,571.339177 L129.6832,573.013484 L128.29623,573.256154 L124.94943,573.262849 L123.05488,572.740369 L121.945,570.931486 L119.80267,570.124018 L116.20459,570.598999 L114.44427,571.804263 L112.95238,572.740369 L111.62052,574.307805 L109.37495,574.830284 L102.87569,574.830284 L102.48336,573.068898 L98.95755,572.538503 L97.34693,573.640854 L95.61242,575.182561 L93.64351,575.606806 L91.45165,576.079087 L89.62674,575.528478 L87.77098,574.509672 L89.60873,573.989173 L90.26434,572.071439 L86.58629,572.987559 L86.80048,571.200641 L84.79237,567.792656 L83.37791,566.415212 L82.88234,563.589078 L83.88381,562.219551 L84.20387,560.462123 L83.5844,557.780462 L84.43101,554.23592 L85.49443,552.628902 L85.24664,550.863559 L85.91773,549.114047 L86.2636,546.758935 L87.8639,544.28112 L88.23042,540.96813 L86.0726,537.057458 L85.91773,533.896858 L86.56818,531.234988 L87.52319,529.485477 L87.95166,527.44504 L91.11095,522.910954 L91.95239,520.500428 L92.40151,517.335871 L94.12569,516.150398 L94.87422,513.953613 L94.29605,511.954737 L94.1928,510.027108 L94.55932,508.004482 L95.15814,506.405381 L95.83956,503.707887 L97.94575,501.382462 L97.35726,499.229217 L97.36242,496.565368 L97.78572,494.063804 L99.89192,490.71915 L101.30121,490.026469 L103.43321,487.691149 L104.68764,486.646191 L105.50843,483.851723 L107.74368,482.953217 L108.62642,481.425364 L111.47082,479.584814 L112.39486,478.262785 L114.66108,471.949502 L116.22008,468.965041 L117.24735,467.773842 L111.78055,466.170573 L103.86168,461.907622 L100.11389,462.10553 L95.95829,460.890372 L94.2341,461.685965 L92.08661,461.39306 L90.32112,461.685965 L88.56596,461.282231 L87.71419,459.829582 L84.42068,458.863789 L82.67585,457.331977 L81.54532,455.483511 L81.0962,452.970072 L78.03499,452.491133 L76.84768,451.553047 L74.84473,452.384262 L73.99812,454.300017 L72.59916,454.608755 L71.31376,456.227646 L69.36243,455.85162 L65.05712,455.812039 L63.4878,455.131233 L61.57777,453.733999 L60.97379,455.360807 L59.44061,456.334517 L57.76288,453.361931 L57.78869,450.6585 L53.59179,448.829825 L51.58368,448.889197 L49.49813,448.410259 L49.08515,450.836617 L48.41406,453.259018 L45.83294,452.681125 L43.60802,452.661335 L42.37941,451.335347 L42.77174,449.427509 L41.36244,448.683373 L40.521,445.89682 L39.29239,444.907277 L35.9963,440.592871 L34.84512,438.685032 L36.22343,437.323421 L33.62683,434.283546 L32.92476,432.043222 L27.48376,428.924183 L25.57373,429.640612 L24.46385,426.814478 L24.78998,424.341296 L24.88716,421.178042 L25.92477,419.155416 L27.22565,417.556315 L28.10839,415.965131 L27.48376,414.346239 L31.92845,410.898672 L31.73229,408.998749 L32.1401,407.265071 L32.26916,404.419146 L30.46754,402.879417 L28.07226,402.879417 L26.35323,402.107574 L24.91813,400.749921 L22.88421,400.658883 L21.92919,399.043949 L19.27064,397.409225 L16.84955,392.706918 L15.99262,391.333432 L14.2994,389.56413 L13.2205,387.644417 L13.05014,385.194309 L12.64749,383.361676 L12.64749,380.915526 L13.23598,378.754365 L13.15339,376.83861 L13.94837,375.089098 L15.31636,374.772445 L15.36799,372.31442 L16.34881,370.133468 L17.87684,368.906436 L20.02433,368.31271 L20.82447,366.036761 L22.32669,364.322873 L24.12315,364.706816 L26.07447,363.816227 L24.23671,359.786809 L24.51548,357.855222 L24.87167,356.050296 L23.93214,353.750599 L23.63789,351.672558 L21.12388,350.599894 L18.21238,350.754263 L16.89085,349.543062 L15.8997,348.308113 L15.3938,346.34486 L16.31268,344.935751 L17.88716,343.657262 L19.57005,342.058161 L16.35914,340.835086 L14.74852,339.208278 L12.37389,334.264523 L10.58259,333.255188 L8.60545,333.785583 L7.90855,331.525468 L7.22197,329.542424 L6.01917,328.097692 L7.28392,326.649001 L7.39233,324.373053 L8.5177,323.225183 L10.20059,322.671039 L10.09734,319.698452 L8.92035,317.917276 L7.36135,316.793155 L7.35103,314.442002 L5.76106,313.606828 L3.75811,313.096223 L1.78614,313.903691 L1.0531,312.106681 L0.28392,309.903959 L0,308.110907 L1.39897,307.398437 L2.68436,308.520577 L4.26917,309.015349 L5.84366,306.412852 L11.13495,302.165734 L13.97934,300.675483 L13.67477,298.779519 L15.21312,297.655398 L11.5789,298.923992 L10.05088,296.879597 L10.62389,293.643792 L12.18805,291.561793 L14.74852,287.015834 L16.53982,285.672036 L17.30383,284.043248 L17.74778,281.692095 L17.0612,279.416146 L17.62389,276.271379 L17.02507,272.37258 L15.01179,270.14413 L11.68731,265.770351 L11.73893,263.735851 L12.32227,262.021963 L8.941,260.602959 L7.79498,259.209683 L8.46607,257.040605 L6.85545,255.748263 L4.83186,255.518688 L5.48746,253.452523 L4.90929,250.422543 L3.94395,248.910521 L6.81416,248.00608 L8.81194,246.883938 L11.56342,245.999287 L13.18436,246.410937 L15.16666,246.887896 L12.632,244.022181 L13.71091,242.700151 L15.32153,243.422517 L16.92698,244.659446 L18.61504,245.318481 L20.17403,244.991932 L21.49557,246.310003 L23.63789,246.850294 L24.59807,248.492935 L26.47196,247.996184 L26.27064,245.504516 L29.47123,246.405 L31.31415,246.048764 L33.77137,244.255712 L38.74261,242.640779 L43.16407,242.506201 L44.51657,241.811542 L45.67808,240.49545 L46.81893,238.532197 L47.90816,236.873724 L46.2356,234.692771 L42.97306,232.963051 L41.08368,232.123918 L41.32631,230.158686 L42.90079,229.636208 L43.71126,228.179601 L44.82114,226.911007 L48.85802,226.143122 L50.59253,223.469377 L53.70536,221.622891 L55.8735,218.990707 L58.63013,217.124429 L57.90742,214.367563 L58.29975,211.808605 L59.30123,209.619737 L59.72453,206.827248 L59.02247,204.858057 L55.98191,200.217102 L53.64341,201.626211 L50.92291,201.491632 L48.34179,200.56542 L44.38752,200.040963 L43.07115,199.437342 L41.78059,197.218787 L41.5328,194.501502 L44.51657,191.918796 L42.88014,190.622495 L42.74076,188.85715 L43.28435,186.783377 L45.85359,185.690614 L50.59253,185.619367 L53.24076,186.367461 L55.70315,186.02508 L58.23781,186.842442 L59.14636,185.203759 L59.51288,182.504286 L59.97748,174.235667 L60.41111,171.67473 L61.30418,169.345346 L65.40299,163.354654 L66.48706,160.78976 L66.9465,158.347568 L67.02394,155.602577 L66.55933,150.118531 L65.90373,147.646653 L66.73485,145.342997 L67.23043,142.831538 L67.03487,139.427355 L68.53477,138.056019 L69.15261,136.323151 L70.03872,133.720731 L71.87599,133.384131 L74.68068,134.652615 L72.44506,132.707813 L61.07187,132.33693 L59.22647,131.495429 L58.49482,129.363627 L58.47856,123.68817 L59.66547,120.072833 L60.29957,118.233998 L63.29123,118.648515 L64.39684,117.049663 L62.40511,114.861761 L61.64907,113.244209 L63.96598,111.374206 L65.77886,109.519788 L68.60793,107.144885 L72.55074,105.742384 L80.23313,104.950749 L82.48501,106.213001 L89.85034,104.810499 L104.8371,102.89998 L108.83275,103.959648 L108.50757,106.680501 L109.90585,109.457455 L111.96261,111.87599 L113.63729,112.945008 L113.98686,114.730861 L115.65341,115.821695 L115.02744,117.90363 L113.04384,119.075499 L111.0765,119.237565 L111.10901,122.295019 L112.24715,123.925037 L114.28765,123.451303 L115.82413,124.754072 L116.99478,126.016322 L118.2386,127.063524 L119.68565,126.913924 L121.88875,124.454871 L123.00249,121.818168 L123.27076,119.190815 L121.82371,117.648064 L119.86043,118.128031 L118.90928,116.843962 L119.69378,112.982409 L120.78313,111.252656 L123.71382,110.850606 L125.40882,112.193891 L126.62825,113.989093 L128.64437,114.936561 L132.9083,115.703262 L134.83906,116.557229 L133.64402,118.065697 L132.54654,119.287432 L131.73765,120.939267 L131.43279,123.164569 L131.4897,127.465574 L131.78236,129.36051 L132.07502,124.090221 L132.11567,121.830635 L132.87985,120.166333 L135.06668,118.502031 L135.52194,116.320362 L133.99359,112.945008 L133.09121,111.458357 L132.29859,108.85282 L131.59132,107.110602 L131.54254,104.545582 L133.71718,99.163093 L135.04229,94.547304 L135.89589,92.502769 L137.58683,90.673283 L139.82245,89.8349 L141.45648,90.140334 L142.68404,91.405701 L144.45627,92.770803 L146.34638,93.665287 L150.25261,94.544188 L152.39474,94.488088 L156.02456,93.668404 L158.02442,93.814887 L162.93058,91.929302 L166.88153,91.963585 L168.41394,91.870085 L170.93002,91.929302 L172.46243,93.506337 L177.32388,101.329178 L179.33187,103.482798 L180.73421,104.529999 L182.10403,107.652903 L185.53469,112.268691 L187.22563,113.284725 L189.03851,113.693009 L192.00578,115.559895 L195.3714,116.245562 L198.11917,116.806563 L196.27377,114.556327 L191.79441,114.082593 L189.96527,113.415625 L186.3639,111.283823 L184.72174,109.588355 L184.13641,107.144885 L183.99008,105.056716 L183.29501,103.305147 L180.94964,102.114579 L178.97824,100.849211 L177.81165,98.545992 L177.02309,96.074473 L175.12891,93.889687 L171.97466,91.411934 L170.08862,90.364733 L168.22289,89.9658 L161.87781,89.8349 L159.97957,89.037032 L158.12604,89.049499 L156.44323,89.485833 L154.68726,88.270331 L153.01664,86.394096 L148.88685,78.808121 L150.80948,78.00402 L152.94348,78.23777 L154.90676,79.431455 L157.07327,79.284971 L157.86183,76.928769 L158.12604,74.101949 L156.61802,72.571664 L156.07741,70.916712 L154.85798,70.103261 L153.1142,70.393111 L151.4883,71.103712 L150.25261,72.010663 L148.88685,69.869511 L148.0048,68.149109 L148.26901,66.241707 L149.55347,63.71097 L149.81362,61.604101 L151.92729,61.055568 L153.31744,60.594301 L154.87017,58.425098 L152.34596,58.939349 L150.09815,58.481198 L147.49264,59.201149 L145.95616,59.366332 L144.17174,59.088949 L141.73695,60.806234 L139.82245,60.54755 L138.39978,59.378799 L137.36734,57.695797 L137.22507,55.704245 L139.29809,54.357843 L140.83051,54.08046 L139.76148,52.646792 L139.65173,50.471356 L144.76519,49.904122 L150.25261,49.904122 L152.57765,49.006521 L154.68726,47.335985 L156.61395,46.485134 L157.7846,44.671233 L157.78867,42.816814 L156.5164,41.059012 L152.43945,37.125774 L151.6143,35.498872 L150.1266,35.171622 L148.51289,35.785606 L149.88272,34.164938 L148.13894,30.001067 L146.05778,28.137298 L143.35878,26.027312 L141.66378,25.279311 L141.94425,23.368792 L141.29389,21.810458 L140.32241,20.277056 L139.3672,16.939102 L139.59076,15.1626 L140.26948,12.946937 L142.02095,13.43101 L143.86387,13.502256 L147.26579,12.37022 L152.42286,12.821452 Z M126.66077,13.105598 L129.0671,13.638548 L139.95252,13.152348 L138.70058,14.031249 L132.45711,13.722699 L131.67668,14.096699 L130.29873,15.053517 L129.54268,15.24675 L126.09983,15.24675 L125.77465,15.09715 L125.34379,14.430183 L124.92105,14.246299 L124.44141,14.264999 L124.11623,14.380316 L122.60414,15.315317 L122.34806,15.52725 L122.21393,16.088251 L122.14076,17.59672 L121.99443,17.908386 L122.16515,22.090958 L122.03508,23.456059 L121.78306,24.51261 L121.47008,24.737011 L121.14083,23.661759 L121.10018,21.642157 L121.67738,13.329998 L122.14889,11.703096 L125.92911,2.3250359 L128.03059,0 L130.40847,1.1220009 L127.35991,1.2684851 L126.96969,1.6456017 L128.35171,1.7733854 L128.76225,2.7052697 L128.31919,3.7587042 L126.28681,4.7685056 L125.34379,6.015173 L124.8235,7.5516916 L125.26249,8.9728929 L124.96983,11.687513 L126.66077,13.105598 Z" id="Shape" stroke="#979797" fill-rule="nonzero"></path>
            <path d="M345.605698,191.727264 C327.285514,199.107958 338.821294,219.718263 341.746981,234.31379 C346.332159,257.18811 343.332884,240.86943 339.400107,248.720253 C339.050387,249.418383 338.980814,250.404034 339.400107,251.062732 C348.212988,264.907498 358.582479,274.201126 356.592934,292.084675 C353.850581,316.735035 323.178115,311.848565 308.583109,320.607539 C294.296025,329.181718 296.613049,337.054946 289.047803,350.299445 C283.840716,359.41551 271.772149,362.798932 265.609832,374.128562 C254.894549,393.828975 251.716468,415.564829 255.839982,438.88733 C261.615479,471.553408 271.711782,433.511955 273.032809,454.124428 C273.939031,468.264558 273.032809,482.462707 273.032809,496.631846" id="Path-2" stroke="#979797"></path>
            <ellipse id="Oval" fill="#D8D8D8" cx="352" cy="186" rx="15" ry="15"></ellipse>
            <ellipse id="Oval-Copy" fill="#D8D8D8" cx="274" cy="501" rx="15" ry="15"></ellipse>
        </g>
    </g>
</svg>