<?xml version="1.0" encoding="UTF-8" standalone="no"?>
<svg width="458px" height="597px" viewBox="0 0 458 597" version="1.1" xmlns="http://www.w3.org/2000/svg" xmlns:xlink="http://www.w3.org/1999/xlink">
    <!-- Generator: Sketch 43.1 (39012) - http://www.bohemiancoding.com/sketch -->
    <title>Shape</title>
    <desc>Created with Sketch.</desc>
    <defs></defs>
    <g id="Page-1" stroke="none" stroke-width="1" fill="none" fill-rule="evenodd">
        <g id="new" transform="translate(-1591.000000, -89.000000)" fill="#323232">
            <path d="M1635.43889,202.895592 L1635.80472,203.350627 L1636.15429,204.079928 L1635.70717,203.84306 L1635.06087,203.138693 L1634.63407,202.989093 L1634.13004,203.070126 L1633.39026,203.425427 L1633.0854,203.512694 L1632.18709,203.104409 L1631.50015,202.206808 L1631.3091,201.306091 L1631.89036,200.897807 L1635.69497,199.831906 L1637.5607,199.701006 L1638.23138,200.897807 L1637.10951,201.047407 L1635.37386,201.739308 L1634.45116,201.945008 L1634.45116,202.415625 L1635.00803,202.615093 L1635.43889,202.895592 Z M1652.58403,194.574083 L1642.0116,195.664918 L1643.86107,194.829651 L1650.66547,194.02555 L1652.58403,194.574083 Z M1665.6319,191.800247 L1665.5506,191.887514 L1665.4124,191.884397 L1663.08736,192.735248 L1656.98616,193.470782 L1654.96598,192.959648 L1657.25444,191.734797 L1659.94937,191.323396 L1665.60751,191.435597 L1665.6319,191.800247 Z M1669.42432,190.958746 L1670.07061,191.435597 L1669.91209,191.734797 L1669.74543,191.856347 L1669.35521,191.959198 L1667.35535,191.39508 L1666.6237,191.435597 L1667.44884,190.908879 L1668.4691,190.765512 L1669.42432,190.958746 Z M1706.84039,191.61948 L1706.0437,192.323848 L1705.79981,192.482798 L1705.36895,192.379948 L1705.09255,192.202298 L1704.79175,192.164897 L1704.26333,192.482798 L1704.26333,191.959198 L1704.88931,190.971213 L1705.87298,190.578512 L1706.99485,190.743696 L1708.05169,191.435597 L1707.33629,191.435597 L1706.84039,191.61948 Z M1679.64311,189.677795 L1679.56995,189.752595 L1679.448,189.749478 L1679.31387,189.818045 L1675.67184,189.715195 L1673.98497,190.092312 L1673.85083,191.435597 L1672.38752,191.501047 L1671.9404,191.136396 L1671.76968,190.104779 L1672.02169,189.225877 L1672.63954,188.873694 L1674.15976,188.82071 L1678.61473,188.783311 L1679.61872,189.344311 L1679.64311,189.677795 Z M1688.20349,187.729876 L1687.08568,188.37191 L1685.6874,188.911094 L1684.25254,188.989011 L1683.02905,188.253476 L1682.5738,188.845644 L1682.13481,189.151077 L1681.71207,189.144844 L1681.32592,188.82071 L1682.59412,187.374576 L1684.69154,186.947592 L1688.91482,187.209392 L1688.91482,187.729876 L1688.20349,187.729876 Z M1694.71522,186.489442 L1696.0444,187.228092 L1695.56882,187.143942 L1695.03228,187.209392 L1692.9308,186.763708 L1692.03249,186.807342 L1691.95932,187.729876 L1690.99597,187.100309 L1691.21547,186.614108 L1692.10565,186.311791 L1693.15029,186.202707 L1693.97137,186.274391 L1694.71522,186.489442 Z M1872.97508,168.855322 L1871.49551,172.844659 L1870.96709,173.558377 L1870.34925,173.577077 L1870.3086,173.044126 L1870.6541,171.707075 L1870.43461,170.818824 L1870.02,170.809474 L1869.74766,171.460858 L1869.97122,172.514293 L1869.23957,173.072177 L1868.43881,173.034776 L1867.63399,172.595326 L1866.86981,171.990692 L1867.60554,170.248473 L1869.41435,168.842855 L1871.48331,168.228871 L1872.97508,168.855322 Z M1875.05623,166.237319 L1874.77576,166.237319 L1874.50343,164.847284 L1874.50749,164.666517 L1874.77576,164.099283 L1878.16984,162.621982 L1878.86897,162.011114 L1878.0235,163.089482 L1875.71472,165.003118 L1875.05623,166.237319 Z M1997.25904,165.143368 L1998.77926,166.003568 L2007.55913,174.727128 L2008.41273,175.300596 L2008.44118,175.313062 L2008.44231,175.313527 L2007.59273,177.378978 L2007.17975,177.63626 L2006.70482,177.762921 L2007.57724,178.736631 L2007.97996,179.932167 L2002.3156,180.524134 L2001.20185,180.374535 L2000.36452,179.838467 L1999.202,181.029036 L1997.74275,181.801969 L1994.8771,182.496987 L1991.71878,182.543736 L1989.96281,182.066887 L1989.04824,180.929302 L1989.69453,180.711135 L1990.73104,179.991184 L1992.34069,179.673283 L1994.07227,178.766332 L1994.53566,178.311299 L1994.90148,176.098463 L1993.04796,172.913226 L1993.17803,170.949724 L1995.69411,171.089974 L1996.58429,171.423458 L1996.24285,171.990692 L1996.3648,172.417676 L1995.96645,173.913677 L1995.90141,175.129178 L1996.68185,173.866928 L1997.32408,173.55526 L1999.3402,173.558377 L1999.08005,173.74226 L1998.87681,173.941727 L1998.74268,174.222227 L1998.66545,174.652328 L2000.36452,175.129178 L1999.9621,174.134961 L2000.60027,172.252492 L2000.51085,170.211073 L1999.81984,168.936355 L1998.66545,169.372689 L1998.25897,168.126021 L1997.71429,167.09752 L1997.03548,166.284069 L1996.24285,165.713718 L1995.25512,165.498668 L1994.25925,165.695018 L1993.74709,166.280952 L1994.19422,167.23777 L1994.19422,167.808121 L1993.76742,168.023171 L1993.31623,168.493788 L1992.9504,169.089072 L1992.80407,169.659422 L1992.49921,169.821489 L1990.75543,170.41989 L1990.86112,169.391389 L1991.23507,168.755588 L1991.63342,168.303671 L1991.77162,167.808121 L1991.51148,166.873119 L1991.13752,166.77027 L1990.70666,167.050769 L1989.10921,167.69592 L1988.37349,168.584172 L1987.67028,169.210622 L1986.66629,168.855322 L1987.06464,167.371787 L1988.42226,164.847284 L1988.7068,162.843265 L1988.2678,161.665164 L1986.2273,159.729712 L1985.60945,158.869511 L1986.07284,158.003077 L1986.84107,157.270659 L1987.76784,156.943409 L1988.7068,157.298709 L1989.14579,158.040476 L1990.16198,160.543162 L1990.75543,161.534263 L1992.08054,162.752882 L1995.373,164.488867 L1997.25904,165.143368 Z M1693.47547,156.781342 L1693.22752,156.952759 L1693.15436,156.634858 L1692.94706,156.575641 L1692.78853,156.232808 L1692.56497,155.995941 L1692.26418,155.746607 L1692.99583,155.690507 L1693.30069,155.995941 L1693.47547,156.781342 Z M1694.93879,156.055157 L1694.15022,156.276441 L1693.88601,155.871274 L1694.75994,155.64064 L1694.93879,156.055157 Z M1742.6143,134.718434 L1740.44372,134.868034 L1739.41534,134.53455 L1738.86253,133.671233 L1739.40721,133.409432 L1739.49664,132.976216 L1739.26901,132.511831 L1738.86253,132.153414 L1740.44372,130.79143 L1742.1997,130.071479 L1744.17517,129.968628 L1746.37014,130.489113 L1746.13845,130.582612 L1746.0287,130.813246 L1746.00431,131.15608 L1746.05715,131.579947 L1745.13852,132.371581 L1744.50441,133.315933 L1743.78089,134.17925 L1742.6143,134.718434 Z M1860.8743,133.933033 L1863.80092,138.904122 L1857.52088,137.956654 L1856.60631,138.424155 L1856.82987,138.735822 L1857.04937,138.872956 L1855.04138,138.991389 L1853.73252,138.795039 L1853.16752,138.162355 L1853.26508,136.604019 L1853.03339,136.005619 L1852.31799,135.765635 L1851.00914,135.728235 L1850.47259,135.880952 L1850.09863,136.335985 L1849.72874,136.335985 L1849.56209,135.774985 L1849.39137,135.457085 L1849.12309,135.444618 L1848.52964,135.774985 L1848.39144,134.718434 L1849.78971,131.623581 L1851.74892,129.912529 L1854.16339,129.547879 L1858.42325,131.19348 L1859.69959,132.175231 L1860.09387,132.642732 L1860.8743,133.933033 Z M1731.71669,132.156531 L1730.29403,132.885832 L1729.17216,132.867132 L1728.53806,132.362231 L1728.0259,131.255813 L1728.33482,130.021612 L1729.23719,129.398278 L1729.60302,129.242445 L1729.95665,129.036744 L1733.17188,127.81501 L1733.2735,128.644044 L1732.87108,130.52028 L1731.71669,132.156531 Z M1955.85544,124.713923 L1955.84731,125.564774 L1955.81886,125.480624 L1955.67659,125.321674 L1955.47742,125.302974 L1955.47742,126.350175 L1955.16443,126.350175 L1955.16443,124.785606 L1953.94094,125.683208 L1953.65234,126.936108 L1953.60357,128.419643 L1953.12393,130.009146 L1952.7581,130.436129 L1952.05083,130.98778 L1951.75004,131.579947 L1951.57119,132.327948 L1951.4777,133.094649 L1951.4086,134.718434 L1951.06716,134.718434 L1951.06716,133.671233 L1951.20943,131.910314 L1952.77436,126.880008 L1953.11173,124.94144 L1953.47756,124.405373 L1954.29458,124.212139 L1954.98558,124.180972 L1955.54652,124.265123 L1955.85544,124.713923 Z M1967.52536,120.771335 L1967.13107,121.855936 L1967.28147,123.214805 L1967.70827,124.302522 L1968.36676,125.14714 L1969.20816,125.779824 L1971.29338,126.412508 L1977.76854,125.302974 L1979.99196,125.739308 L1981.49998,127.229075 L1981.82923,129.201928 L1980.52444,131.056347 L1978.30915,132.380931 L1977.21167,133.334632 L1976.74422,134.456633 L1976.92714,135.743818 L1977.36613,137.083987 L1977.92707,138.224687 L1978.44735,138.904122 L1979.47167,139.384089 L1981.83736,139.89834 L1982.87794,140.568424 L1984.20711,142.750093 L1985.06071,143.753661 L1986.2842,144.180645 L1985.61758,144.610745 L1984.96722,145.336929 L1984.47132,146.331147 L1984.27621,147.580931 L1984.27621,148.796433 L1984.12175,149.2764 L1983.60146,149.22965 L1982.51211,148.8837 L1983.09743,148.8837 L1983.56082,148.649949 L1983.76405,148.135699 L1983.56082,147.319131 L1983.21938,147.319131 L1982.70722,147.817799 L1981.93898,148.079599 L1981.13416,148.088949 L1980.52444,147.836499 L1980.52444,147.319131 L1982.37797,146.602297 L1983.14621,146.053763 L1983.56082,145.181095 L1980.96344,145.340046 L1979.80498,145.667296 L1978.81725,146.27193 L1981.57315,144.532828 L1982.51211,144.180645 L1982.51211,143.657044 L1981.17074,143.541727 L1980.4716,143.60406 L1979.98383,143.918844 L1979.30908,144.626329 L1978.88635,144.451795 L1978.5002,143.946894 L1977.93519,143.657044 L1972.95993,144.180645 L1972.06569,144.688661 L1969.4236,146.783064 L1968.86672,147.580931 L1968.28546,148.7528 L1967.06197,148.983433 L1965.96449,149.5008 L1965.76938,151.548453 L1966.45226,151.024852 L1966.46445,150.635268 L1966.35877,150.535535 L1966.22057,150.529301 L1966.13927,150.454501 L1968.52529,150.080501 L1968.86672,150.220751 L1969.23255,151.969203 L1969.13093,152.773304 L1968.34237,153.119254 L1966.91564,152.916671 L1965.33445,152.41177 L1963.56222,151.364569 L1963.96056,150.959402 L1964.22884,150.055568 L1964.74506,148.8837 L1964.01341,149.2764 L1963.68416,149.581834 L1963.3793,149.980767 L1963.57848,150.192701 L1963.72074,150.454501 L1962.72081,150.370352 L1962.19646,150.466968 L1961.83063,150.741235 L1961.38351,150.953169 L1960.88761,150.650851 L1960.42829,150.205168 L1960.11124,149.980767 L1959.37959,149.856101 L1958.49753,149.47275 L1957.95286,148.815133 L1958.23332,147.836499 L1957.50573,147.640149 L1955.97739,148.313349 L1955.47742,148.366332 L1955.13598,147.774165 L1955.44084,147.256798 L1956.10746,147.032398 L1956.86757,147.319131 L1956.86757,146.839164 L1953.77022,144.704245 L1954.45717,143.058643 L1955.44084,141.702892 L1956.70904,141.188641 L1958.23332,142.086242 L1958.57476,141.562642 L1959.15602,142.067542 L1959.84703,141.955342 L1961.33067,141.042157 L1960.54617,140.964241 L1959.95272,140.44999 L1959.70883,139.70199 L1959.94052,138.904122 L1959.94052,138.424155 L1959.25764,138.364938 L1958.88775,137.994054 L1958.5707,137.579537 L1958.0626,137.383187 L1955.84325,137.906787 L1956.70904,136.311052 L1957.083,135.899651 L1958.4325,135.600452 L1959.94052,134.886734 L1960.96484,134.718434 L1960.96484,134.194833 L1961.02581,134.17925 L1961.33067,134.026533 L1961.64365,133.671233 L1960.25757,133.194383 L1959.65192,132.832848 L1959.25764,132.153414 L1959.42836,131.972648 L1959.58689,131.841748 L1959.67225,131.59553 L1959.62754,131.056347 L1958.15609,131.57683 L1957.26185,131.667214 L1956.86757,131.318147 L1956.75782,131.075047 L1956.52613,131.01583 L1956.29444,130.83818 L1956.18469,130.249129 L1956.12372,129.585278 L1955.93674,129.186345 L1955.61156,129.011811 L1955.16443,129.014928 L1956.3107,128.519377 L1960.13563,128.014476 L1960.96484,128.182777 L1961.23311,128.640927 L1961.81437,128.849744 L1962.3997,129.242445 L1962.66797,130.249129 L1962.87934,130.794546 L1963.26143,130.507813 L1963.44841,129.635145 L1963.03787,128.444577 L1963.75733,127.556326 L1964.66783,126.705475 L1965.61086,126.063441 L1966.45226,125.779824 L1965.89539,127.341276 L1965.52143,128.014476 L1965.0865,128.444577 L1965.40355,128.435227 L1965.67589,128.481977 L1965.91571,128.659627 L1966.13927,129.014928 L1965.88726,129.379578 L1965.42794,130.489113 L1966.1474,130.529629 L1966.7246,130.342629 L1967.17172,129.859545 L1967.47251,129.014928 L1967.04978,128.902728 L1966.5742,128.556777 L1966.13927,128.444577 L1966.13927,127.920977 L1966.81809,127.350625 L1967.37496,128.37601 L1968.25701,129.373345 L1968.8464,130.420546 L1968.52529,131.579947 L1969.51302,132.857782 L1970.75684,133.259833 L1973.32983,133.200615 L1972.95993,132.627149 L1973.43958,131.614231 L1973.68346,131.29633 L1974.01271,131.056347 L1974.01271,130.489113 L1973.62249,129.426328 L1973.35015,128.880911 L1972.95993,128.444577 L1972.95993,127.920977 L1973.2526,127.727743 L1973.41519,127.565676 L1973.61842,127.434776 L1974.01271,127.350625 L1974.01271,126.880008 L1973.3908,126.911175 L1972.98839,127.241542 L1972.67134,127.649826 L1972.30551,127.920977 L1971.7649,128.005126 L1970.04957,127.920977 L1969.78129,127.677876 L1969.51302,127.135576 L1969.17158,126.593275 L1968.69601,126.350175 L1967.94403,126.206808 L1967.6351,125.826574 L1967.46438,125.327907 L1967.13107,124.785606 L1966.54981,124.022022 L1966.44007,123.713471 L1965.76938,124.212139 L1965.37916,124.579906 L1964.57434,125.574124 L1963.40369,126.206808 L1962.55416,127.032725 L1961.65178,127.634242 L1960.65185,127.350625 L1960.47707,126.443674 L1960.8307,125.031823 L1961.48106,123.738405 L1962.18427,123.164938 L1962.33466,122.840804 L1962.5501,122.117737 L1962.65984,121.404019 L1962.51351,121.076769 L1960.28196,121.594136 L1959.55031,122.04917 L1959.22919,121.96502 L1959.25764,121.076769 L1959.53811,120.559401 L1960.06653,120.048268 L1960.66811,119.6618 L1967.52129,117.888415 L1968.9155,117.869715 L1970.23248,118.508633 L1970.23248,118.982367 L1969.46424,119.5309 L1968.4318,120.060735 L1967.52536,120.771335 Z M1716.27875,116.214763 L1716.20152,116.298913 L1716.05926,116.280213 L1715.92105,116.370597 L1715.36825,116.875498 L1714.86422,117.458314 L1717.35998,121.644003 L1718.31113,122.117737 L1717.62825,122.641337 L1715.92918,123.189871 L1714.75853,122.23617 L1713.81551,120.709002 L1712.82371,119.505967 L1714.27076,117.081198 L1715.16501,116.205414 L1716.26249,115.846997 L1716.27875,116.214763 Z M1726.93654,117.411565 L1726.52194,117.935165 L1725.83906,118.131516 L1724.99359,118.041132 L1724.22941,117.779332 L1723.79855,117.458314 L1722.49783,117.897766 L1720.88006,117.455198 L1717.96969,115.846997 L1718.95336,114.241911 L1720.0793,113.26951 L1721.44506,112.786426 L1723.11567,112.661759 L1725.89596,112.81136 L1727.03003,113.42846 L1727.92021,114.799795 L1727.92021,115.323396 L1727.50561,115.940496 L1726.93654,117.411565 Z M1743.42286,101.821452 L1747.34617,103.246393 L1757.93908,105.462969 L1759.0025,106.891868 L1759.51873,108.870954 L1764.04601,109.199483 L1765.99218,108.455346 L1767.44277,107.837872 L1769.29601,108.768042 L1770.75867,108.529055 L1773.73407,107.192003 L1775.90059,105.714702 L1777.17692,104.24675 L1777.33951,107.005003 L1779.75804,107.799754 L1782.82693,107.943121 L1784.90402,108.762805 L1787.0746,109.847406 L1788.77773,111.923109 L1790.65971,112.437359 L1792.93191,111.661308 L1793.91558,109.997007 L1795.53742,110.891491 L1796.68368,112.184909 L1797.36656,114.799795 L1799.06969,116.887964 L1797.15113,117.000164 L1795.47645,117.928932 L1797.97627,118.608366 L1799.83387,119.057167 L1800.00459,121.662703 L1799.75257,126.350175 L1799.15912,128.790527 L1798.04944,130.489113 L1796.4398,131.829281 L1794.42774,132.829732 L1792.26529,133.462416 L1790.17194,133.671233 L1792.33033,135.204635 L1804.38639,132.627149 L1808.3414,135.288784 L1807.34147,137.018537 L1807.99996,139.187739 L1807.0041,141.166825 L1805.23999,142.086242 L1805.92694,144.295961 L1808.3414,142.086242 L1809.00396,139.546156 L1811.75173,138.424155 L1813.024,137.224237 L1816.18231,136.812836 L1820.30398,139.471356 L1828.18147,142.609843 L1832.63238,146.377897 L1834.68508,146.839164 L1836.97354,146.462047 L1838.65635,145.523929 L1841.50981,143.133443 L1843.15603,142.179742 L1844.87542,141.528358 L1849.04586,141.042157 L1846.89967,141.615625 L1848.63126,141.709125 L1853.30979,140.50609 L1854.87472,141.042157 L1853.02119,142.909043 L1851.43187,143.133443 L1852.4318,147.434448 L1852.45619,149.849867 L1852.82608,153.359238 L1852.13101,155.366373 L1845.63147,159.916712 L1843.62754,162.235514 L1840.73344,163.376216 L1839.22948,163.142465 L1836.26221,166.246669 L1836.4126,168.733772 L1838.09948,170.557024 L1839.46117,170.949724 L1841.39193,170.768957 L1842.29024,172.657659 L1843.99337,173.605127 L1846.3428,171.716425 L1848.1191,171.242691 L1850.77745,169.949273 L1856.85019,169.219972 L1857.95987,170.887391 L1860.0898,171.866025 L1860.13045,173.997828 L1862.362,175.219562 L1864.79679,173.558377 L1865.99996,175.129178 L1868.08111,175.129178 L1870.02,177.560181 L1871.53615,175.749396 L1871.70281,172.988026 L1872.97508,171.990692 L1874.37335,168.855322 L1875.73911,168.284971 L1877.64142,165.573468 L1879.04376,164.678984 L1879.17789,162.581465 L1880.96639,159.704779 L1882.55571,158.710561 L1884.50679,158.45811 L1888.67723,159.125078 L1900.5829,156.818741 L1902.45675,155.734141 L1902.71283,157.928276 L1902.52585,160.056962 L1902.63153,161.867748 L1903.79812,163.101949 L1903.06646,160.184746 L1904.76147,157.809843 L1903.11524,157.298709 L1905.18827,154.577856 L1907.3873,151.959853 L1908.74493,151.377036 L1912.50889,149.528851 L1914.40307,148.098299 L1916.94354,144.180645 L1919.94739,140.28169 L1922.3334,136.335985 L1923.12603,134.325733 L1924.71942,133.200615 L1925.44294,135.207751 L1927.59726,135.999385 L1938.96638,135.999385 L1940.84024,136.812836 L1943.42542,136.541686 L1942.82384,138.424155 L1936.19828,138.262088 L1934.06429,137.542137 L1932.35709,137.53902 L1930.52389,138.424155 L1928.74759,138.449088 L1927.42654,139.390322 L1925.72747,140.665041 L1924.37798,142.086242 L1922.57729,140.721141 L1920.76847,140.568424 L1919.28077,141.805742 L1919.232,144.180645 L1917.8703,143.657044 L1917.61422,146.003897 L1916.16311,146.839164 L1916.93134,148.702933 L1918.6548,151.342753 L1920.93919,151.024852 L1919.57343,150.791101 L1918.8743,149.08005 L1920.60182,147.319131 L1921.80905,146.462047 L1922.80898,144.535944 L1926.05266,143.133443 L1926.73553,141.562642 L1929.15813,141.958458 L1931.88151,140.568424 L1932.64569,138.916589 L1932.3449,141.129424 L1933.6944,140.721141 L1935.3203,141.042157 L1936.92994,141.129424 L1938.05994,142.201559 L1939.27937,143.236293 L1940.74268,143.189543 L1942.23445,141.992742 L1943.19779,139.99184 L1944.47413,138.860489 L1946.45773,137.710437 L1948.44133,137.046586 L1949.05104,138.848021 L1950.01845,140.568424 L1952.1809,141.571992 L1951.83133,143.597827 L1953.45724,146.839164 L1953.74177,149.151733 L1956.52613,149.413533 L1955.16443,150.454501 L1956.79847,150.314251 L1959.40804,151.651303 L1961.14775,152.025303 L1964.07438,155.699857 L1965.42794,156.775108 L1964.06218,157.822309 L1967.17172,156.955875 L1967.13107,158.869511 L1968.86672,158.869511 L1969.86259,161.010663 L1971.23241,163.058316 L1973.32983,163.62555 L1972.35022,161.87398 L1978.10591,159.916712 L1979.58549,159.299611 L1982.13815,157.72881 L1983.56082,157.298709 L1982.87794,158.869511 L1984.40222,159.580111 L1988.36536,162.581465 L1987.6459,164.227067 L1986.62158,167.050769 L1985.26801,167.808121 L1987.31665,169.902523 L1989.5482,171.423458 L1990.41399,173.081527 L1991.73097,174.334428 L1993.25526,174.960879 L1992.46263,177.270331 L1988.88565,179.944434 L1988.81248,181.864303 L1990.67414,182.478286 L1992.14558,184.563339 L1993.48695,185.11499 L1997.16149,187.910643 L1998.81584,188.253476 L2001.02301,189.257044 L2002.64484,190.029979 L2007.26647,190.528646 L2008.67288,190.142178 L2009.64435,188.845644 L2011.16051,189.624812 L2010.91256,191.435597 L2008.57532,192.959648 L2009.93701,193.520649 L2011.19081,195.740934 L2011.73801,198.43249 L2012.78594,201.409035 L2012.74464,204.967431 L2013.14214,208.244796 L2014.35526,209.962643 L2015.92458,213.180636 L2016.44597,217.146723 L2017.49209,221.610747 L2017.90688,223.699475 L2018.09272,225.840846 L2019.35747,227.350888 L2018.70703,230.26806 L2017.31839,231.716751 L2016.82281,233.672087 L2017.3029,236.001471 L2015.9091,241.445935 L2015.09862,243.47054 L2013.56544,244.956833 L2010.62296,247.12789 L2007.5824,248.600329 L2005.16648,250.26474 L2006.07503,254.228849 L2005.98211,256.635416 L2004.13919,258.634293 L2005.57945,260.344223 L2007.73727,260.724207 L2010.37001,262.928909 L2011.73284,263.607735 L2017.03963,267.251232 L2019.52266,271.239088 L2020.9939,272.12176 L2022.429,273.954394 L2025.41794,275.060703 L2028.31597,278.103909 L2030.15688,279.600725 L2028.75791,282.349675 L2028.37074,284.128872 L2029.53225,285.741827 L2028.70629,287.538837 L2027.49832,289.337826 L2024.91204,291.477217 L2025.1908,294.519071 L2026.37812,297.861747 L2027.42605,300.090198 L2028.24685,302.668946 L2029.94006,303.488287 L2031.35968,303.799003 L2032.75865,304.374917 L2033.5175,307.288132 L2032.54183,308.978271 L2033.07354,311.139432 L2032.2321,314.51971 L2035.97988,317.9178 L2034.679,319.651479 L2034.2144,321.765142 L2033.13549,323.619546 L2032.69154,329.040261 L2031.49906,331.917851 L2027.71514,335.860189 L2027.20924,338.811006 L2028.93343,340.600099 L2029.82133,343.503417 L2030.33756,345.450837 L2031.46292,346.709536 L2033.88918,348.635187 L2035.02487,351.902656 L2035.10746,353.919345 L2033.54847,356.923596 L2033.25107,358.960565 L2034.51897,360.87583 L2037.7815,361.926725 L2039.97546,363.280419 L2042.31911,363.945391 L2044.22914,365.049722 L2045.66941,367.034744 L2045.43221,370.012398 L2045.73135,373.258968 L2046.08755,375.232116 L2047.01159,376.793615 L2048.14212,378.074084 L2048.87,379.576209 L2048.61188,381.798722 L2048.14212,383.870825 L2047.46587,385.911262 L2047.05805,388.060549 L2047.00126,389.996094 L2046.18047,391.84456 L2045.81395,394.601427 L2043.43416,400.948354 L2040.91498,406.75499 L2039.13917,408.670746 L2038.42678,411.227724 L2037.63696,413.282015 L2036.67679,414.710915 L2034.78741,414.885074 L2032.93416,414.48134 L2031.02413,413.072231 L2028.57723,412.213309 L2028.51012,410.269847 L2029.35673,408.342218 L2029.37738,406.458128 L2026.0116,407.5585 L2026.31101,405.084643 L2026.7911,403.010561 L2025.65024,400.948354 L2023.68859,400.152761 L2022.429,398.646677 L2021.03004,398.88021 L2019.21809,398.781255 L2017.81912,399.380918 L2016.39951,398.666468 L2013.90098,397.32069 L2012.31101,397.564118 L2011.11338,398.743652 L2010.41131,400.948354 L2012.12517,402.313923 L2013.84936,405.171722 L2015.69228,405.698159 L2017.02414,406.446254 L2016.72473,408.354092 L2015.25865,409.561334 L2011.34051,409.260513 L2009.54405,409.624665 L2008.0883,411.481047 L1999.6945,415.506507 L1996.90689,415.340264 L1995.39436,415.918157 L1994.11928,417.240186 L1992.58094,417.204562 L1991.97179,419.148024 L1991.13035,420.67192 L1989.68492,421.550634 L1986.49466,421.479387 L1983.51604,422.271021 L1978.0673,422.433307 L1975.80108,422.848914 L1973.75683,424.052198 L1974.13884,426.260858 L1972.64179,427.713506 L1972.08943,429.423436 L1970.37556,431.232321 L1968.33132,430.923583 L1967.29887,429.368022 L1964.07763,430.840462 L1963.26716,432.87892 L1961.3881,433.041204 L1959.60713,432.399981 L1957.94489,436.742094 L1955.99873,438.911173 L1953.36598,438.760762 L1951.95669,439.235742 L1950.55256,439.362404 L1948.89548,438.962628 L1948.15728,442.366655 L1947.12484,444.583232 L1945.63295,446.024006 L1943.92425,445.92901 L1939.29888,443.170164 L1937.72956,443.593689 L1935.72661,443.637228 L1934.27086,444.547608 L1933.16614,446.225872 L1929.2893,446.348575 L1925.55184,446.62169 L1923.53856,447.203541 L1922.15508,448.367243 L1921.38075,449.954469 L1919.94564,451.510031 L1918.47957,452.317498 L1916.39402,455.606738 L1914.86084,457.174174 L1913.74063,459.632198 L1913.31733,461.714196 L1913.75612,463.483498 L1912.20745,464.556163 L1911.10273,461.670656 L1910.54004,460.03989 L1909.48695,458.824731 L1908.23252,457.098968 L1906.94713,456.394414 L1906.76645,454.482617 L1905.51202,453.105173 L1903.11597,452.931316 L1903.41099,454.700317 L1903.50391,456.774398 L1902.02751,458.389332 L1905.01129,460.815691 L1906.23474,462.13772 L1907.17943,463.903064 L1906.97294,466.796488 L1907.43754,469.104101 L1908.94491,470.196557 L1910.11158,471.570041 L1910.38518,473.537253 L1917.9427,477.535006 L1920.59609,478.469134 L1921.56659,480.38093 L1921.16393,482.245229 L1923.20818,483.43268 L1924.07544,485.748211 L1922.5216,489.029534 L1921.15361,489.908248 L1920.82323,492.595847 L1919.86821,494.654095 L1917.80332,495.524893 L1917.46261,497.484188 L1919.01128,499.942211 L1920.49284,501.105914 L1922.15508,501.897548 L1923.2598,503.069167 L1922.87263,505.024504 L1923.63665,506.726517 L1925.35567,507.957508 L1925.939,510.486779 L1926.46039,512.30358 L1927.70965,514.128296 L1929.17057,514.524114 L1929.38222,518.327916 L1930.19785,520.67907 L1933.47587,522.575034 L1936.11894,527.285258 L1937.89991,528.464792 L1940.84239,528.896233 L1942.24136,527.566288 L1944.15139,528.092724 L1945.72071,529.133724 L1947.12484,530.625954 L1948.27085,531.611539 L1950.16023,534.968068 L1955.46701,541.716749 L1956.9176,544.511218 L1958.33206,545.342434 L1961.35197,545.484928 L1962.96259,546.403223 L1964.48028,548.449598 L1966.60197,550.626592 L1967.19046,554.109783 L1969.34311,556.643012 L1970.92276,557.786924 L1972.60565,557.019039 L1973.77232,555.855336 L1975.79591,556.643012 L1977.49429,557.802756 L1978.52674,559.148534 L1979.83795,561.737178 L1981.63441,563.047333 L1983.49539,563.344195 L1985.35896,565.572646 L1987.76973,570.441196 L1987.2535,574.656649 L1987.92976,576.354704 L1988.00719,578.452535 L1988.27047,580.926392 L1988.07946,583.317126 L1986.9128,586.21055 L1984.82725,587.334671 L1983.78964,590.212261 L1981.63441,589.155429 L1980.05992,587.346545 L1974.00978,585.395167 L1972.33721,585.62474 L1970.70595,586.248152 L1970.36524,589.206885 L1970.79887,591.364089 L1969.89031,593.517333 L1969.89031,596.392945 L1969.33795,598.11277 L1968.95595,600.133416 L1963.37557,605.688709 L1961.69784,606.648566 L1954.81657,607.877578 L1949.63885,609.983325 L1946.97513,612.399789 L1945.36451,613.320063 L1941.89032,614.695528 L1940.68236,615.619761 L1939.76864,617.096158 L1937.13074,619.292943 L1936.21702,620.692157 L1934.9626,621.481812 L1935.11747,623.524228 L1936.02602,625.202492 L1939.54151,628.986504 L1940.29003,630.696434 L1940.70817,632.432092 L1942.30847,633.77985 L1943.71776,635.074171 L1946.25242,639.978345 L1947.33133,641.640777 L1944.34239,647.221798 L1943.86746,649.307754 L1942.60788,651.346212 L1946.20596,652.739489 L1948.21923,652.030976 L1949.61304,652.642514 L1951.203,655.142098 L1951.73988,657.235971 L1951.6005,659.092353 L1950.88295,660.776555 L1949.91245,662.033274 L1950.00537,663.8382 L1949.40655,666.612878 L1949.8505,668.364369 L1948.44121,670.759063 L1946.96997,670.594798 L1945.55551,670.576986 L1942.13811,668.57811 L1939.8564,665.967696 L1938.19416,665.302724 L1936.96039,664.269641 L1936.69711,662.379614 L1937.30626,660.604375 L1938.66909,659.903778 L1936.38222,658.023647 L1936.11378,655.688326 L1932.45375,655.055019 L1930.67278,655.055019 L1928.89181,655.498334 L1926.19338,657.610689 L1924.93753,658.409569 L1922.85715,658.595603 L1920.66836,656.998481 L1919.47072,654.237657 L1916.45597,654.409837 L1912.72367,653.915065 L1910.5194,654.680972 L1909.20819,653.463834 L1909.86895,651.864733 L1907.66468,652.371379 L1907.49949,654.255468 L1908.38223,657.319092 L1906.72515,660.420319 L1894.852,659.9869 L1890.66026,660.87353 L1889.59684,662.524087 L1886.26719,662.102542 L1882.19935,662.08473 L1880.02088,661.633499 L1877.53268,663.078232 L1876.79965,665.662917 L1875.63814,667.420345 L1872.21042,668.271352 L1869.85127,667.725124 L1866.3616,670.818435 L1867.70894,671.93266 L1866.47001,673.054801 L1864.30187,673.108237 L1862.40732,674.351103 L1861.03417,676.072907 L1858.7473,676.448934 L1858.8557,674.366935 L1856.52753,674.26996 L1853.265,676.621114 L1847.08063,676.852667 L1845.87267,675.392101 L1846.09981,673.638631 L1843.60645,670.844163 L1841.03565,669.605255 L1842.30556,667.855744 L1841.04598,666.120086 L1839.64701,666.280392 L1837.63374,667.238269 L1836.15734,667.424303 L1828.52238,663.699664 L1826.62268,664.18454 L1825.61088,665.651043 L1822.26059,665.951864 L1820.81,664.926698 L1821.21265,663.113855 L1819.59687,662.569606 L1819.35425,664.382449 L1819.11678,669.001635 L1820.51575,670.56907 L1820.73256,673.159693 L1820.27829,674.881498 L1819.55041,676.431122 L1818.29082,677.881791 L1816.7215,678.625928 L1815.31221,681.432271 L1813.43832,683.621139 L1811.20307,685.052018 L1806.89705,685.9039 L1807.44496,684.171325 L1808.57549,679.61547 L1807.69275,677.719506 L1805.49879,678.135114 L1803.91915,678.659572 L1802.29821,679.263193 L1801.49806,677.216819 L1801.95234,674.835979 L1799.28862,669.391514 L1797.83803,670.262312 L1796.74364,667.978447 L1795.59762,666.612878 L1794.10057,666.00332 L1792.61385,665.880616 L1791.11163,665.302724 L1788.82476,665.271059 L1788.56665,662.623042 L1787.27609,661.69683 L1785.80485,662.183685 L1784.71562,663.497797 L1783.37344,666.062692 L1782.01061,666.735581 L1778.81002,666.792975 L1775.88916,665.960973 L1761.85722,656.972752 L1759.91622,656.507668 L1758.04749,656.509647 L1754.60944,655.415212 L1749.03938,654.766072 L1747.29971,656.048519 L1745.4826,656.650162 L1743.52611,656.842133 L1740.85207,655.387505 L1739.73186,652.598973 L1738.1006,651.615368 L1736.3093,653.054163 L1734.07921,653.566747 L1733.45974,651.975561 L1734.07921,649.8144 L1732.84027,648.771422 L1731.56004,647.15451 L1729.98039,646.669634 L1729.10281,648.759548 L1728.39042,646.46183 L1726.14485,645.40104 L1725.06078,647.475121 L1722.37125,648.029266 L1720.74515,649.284006 L1720.136,651.37392 L1718.33954,652.60689 L1718.004,654.312862 L1718.59249,656.094039 L1720.12052,657.144933 L1722.04087,657.71491 L1723.47081,656.80651 L1726.64559,655.989147 L1728.14264,656.452253 L1728.31299,658.312594 L1727.29603,659.678163 L1726.93983,661.388093 L1725.12273,659.88003 L1722.8565,659.290262 L1721.32848,660.339177 L1720.6832,662.013484 L1719.29623,662.256154 L1715.94943,662.262849 L1714.05488,661.740369 L1712.945,659.931486 L1710.80267,659.124018 L1707.20459,659.598999 L1705.44427,660.804263 L1703.95238,661.740369 L1702.62052,663.307805 L1700.37495,663.830284 L1693.87569,663.830284 L1693.48336,662.068898 L1689.95755,661.538503 L1688.34693,662.640854 L1686.61242,664.182561 L1684.64351,664.606806 L1682.45165,665.079087 L1680.62674,664.528478 L1678.77098,663.509672 L1680.60873,662.989173 L1681.26434,661.071439 L1677.58629,661.987559 L1677.80048,660.200641 L1675.79237,656.792656 L1674.37791,655.415212 L1673.88234,652.589078 L1674.88381,651.219551 L1675.20387,649.462123 L1674.5844,646.780462 L1675.43101,643.23592 L1676.49443,641.628902 L1676.24664,639.863559 L1676.91773,638.114047 L1677.2636,635.758935 L1678.8639,633.28112 L1679.23042,629.96813 L1677.0726,626.057458 L1676.91773,622.896858 L1677.56818,620.234988 L1678.52319,618.485477 L1678.95166,616.44504 L1682.11095,611.910954 L1682.95239,609.500428 L1683.40151,606.335871 L1685.12569,605.150398 L1685.87422,602.953613 L1685.29605,600.954737 L1685.1928,599.027108 L1685.55932,597.004482 L1686.15814,595.405381 L1686.83956,592.707887 L1688.94575,590.382462 L1688.35726,588.229217 L1688.36242,585.565368 L1688.78572,583.063804 L1690.89192,579.71915 L1692.30121,579.026469 L1694.43321,576.691149 L1695.68764,575.646191 L1696.50843,572.851723 L1698.74368,571.953217 L1699.62642,570.425364 L1702.47082,568.584814 L1703.39486,567.262785 L1705.66108,560.949502 L1707.22008,557.965041 L1708.24735,556.773842 L1702.78055,555.170573 L1694.86168,550.907622 L1691.11389,551.10553 L1686.95829,549.890372 L1685.2341,550.685965 L1683.08661,550.39306 L1681.32112,550.685965 L1679.56596,550.282231 L1678.71419,548.829582 L1675.42068,547.863789 L1673.67585,546.331977 L1672.54532,544.483511 L1672.0962,541.970072 L1669.03499,541.491133 L1667.84768,540.553047 L1665.84473,541.384262 L1664.99812,543.300017 L1663.59916,543.608755 L1662.31376,545.227646 L1660.36243,544.85162 L1656.05712,544.812039 L1654.4878,544.131233 L1652.57777,542.733999 L1651.97379,544.360807 L1650.44061,545.334517 L1648.76288,542.361931 L1648.78869,539.6585 L1644.59179,537.829825 L1642.58368,537.889197 L1640.49813,537.410259 L1640.08515,539.836617 L1639.41406,542.259018 L1636.83294,541.681125 L1634.60802,541.661335 L1633.37941,540.335347 L1633.77174,538.427509 L1632.36244,537.683373 L1631.521,534.89682 L1630.29239,533.907277 L1626.9963,529.592871 L1625.84512,527.685032 L1627.22343,526.323421 L1624.62683,523.283546 L1623.92476,521.043222 L1618.48376,517.924183 L1616.57373,518.640612 L1615.46385,515.814478 L1615.78998,513.341296 L1615.88716,510.178042 L1616.92477,508.155416 L1618.22565,506.556315 L1619.10839,504.965131 L1618.48376,503.346239 L1622.92845,499.898672 L1622.73229,497.998749 L1623.1401,496.265071 L1623.26916,493.419146 L1621.46754,491.879417 L1619.07226,491.879417 L1617.35323,491.107574 L1615.91813,489.749921 L1613.88421,489.658883 L1612.92919,488.043949 L1610.27064,486.409225 L1607.84955,481.706918 L1606.99262,480.333432 L1605.2994,478.56413 L1604.2205,476.644417 L1604.05014,474.194309 L1603.64749,472.361676 L1603.64749,469.915526 L1604.23598,467.754365 L1604.15339,465.83861 L1604.94837,464.089098 L1606.31636,463.772445 L1606.36799,461.31442 L1607.34881,459.133468 L1608.87684,457.906436 L1611.02433,457.31271 L1611.82447,455.036761 L1613.32669,453.322873 L1615.12315,453.706816 L1617.07447,452.816227 L1615.23671,448.786809 L1615.51548,446.855222 L1615.87167,445.050296 L1614.93214,442.750599 L1614.63789,440.672558 L1612.12388,439.599894 L1609.21238,439.754263 L1607.89085,438.543062 L1606.8997,437.308113 L1606.3938,435.34486 L1607.31268,433.935751 L1608.88716,432.657262 L1610.57005,431.058161 L1607.35914,429.835086 L1605.74852,428.208278 L1603.37389,423.264523 L1601.58259,422.255188 L1599.60545,422.785583 L1598.90855,420.525468 L1598.22197,418.542424 L1597.01917,417.097692 L1598.28392,415.649001 L1598.39233,413.373053 L1599.5177,412.225183 L1601.20059,411.671039 L1601.09734,408.698452 L1599.92035,406.917276 L1598.36135,405.793155 L1598.35103,403.442002 L1596.76106,402.606828 L1594.75811,402.096223 L1592.78614,402.903691 L1592.0531,401.106681 L1591.28392,398.903959 L1591,397.110907 L1592.39897,396.398437 L1593.68436,397.520577 L1595.26917,398.015349 L1596.84366,395.412852 L1602.13495,391.165734 L1604.97934,389.675483 L1604.67477,387.779519 L1606.21312,386.655398 L1602.5789,387.923992 L1601.05088,385.879597 L1601.62389,382.643792 L1603.18805,380.561793 L1605.74852,376.015834 L1607.53982,374.672036 L1608.30383,373.043248 L1608.74778,370.692095 L1608.0612,368.416146 L1608.62389,365.271379 L1608.02507,361.37258 L1606.01179,359.14413 L1602.68731,354.770351 L1602.73893,352.735851 L1603.32227,351.021963 L1599.941,349.602959 L1598.79498,348.209683 L1599.46607,346.040605 L1597.85545,344.748263 L1595.83186,344.518688 L1596.48746,342.452523 L1595.90929,339.422543 L1594.94395,337.910521 L1597.81416,337.00608 L1599.81194,335.883938 L1602.56342,334.999287 L1604.18436,335.410937 L1606.16666,335.887896 L1603.632,333.022181 L1604.71091,331.700151 L1606.32153,332.422517 L1607.92698,333.659446 L1609.61504,334.318481 L1611.17403,333.991932 L1612.49557,335.310003 L1614.63789,335.850294 L1615.59807,337.492935 L1617.47196,336.996184 L1617.27064,334.504516 L1620.47123,335.405 L1622.31415,335.048764 L1624.77137,333.255712 L1629.74261,331.640779 L1634.16407,331.506201 L1635.51657,330.811542 L1636.67808,329.49545 L1637.81893,327.532197 L1638.90816,325.873724 L1637.2356,323.692771 L1633.97306,321.963051 L1632.08368,321.123918 L1632.32631,319.158686 L1633.90079,318.636208 L1634.71126,317.179601 L1635.82114,315.911007 L1639.85802,315.143122 L1641.59253,312.469377 L1644.70536,310.622891 L1646.8735,307.990707 L1649.63013,306.124429 L1648.90742,303.367563 L1649.29975,300.808605 L1650.30123,298.619737 L1650.72453,295.827248 L1650.02247,293.858057 L1646.98191,289.217102 L1644.64341,290.626211 L1641.92291,290.491632 L1639.34179,289.56542 L1635.38752,289.040963 L1634.07115,288.437342 L1632.78059,286.218787 L1632.5328,283.501502 L1635.51657,280.918796 L1633.88014,279.622495 L1633.74076,277.85715 L1634.28435,275.783377 L1636.85359,274.690614 L1641.59253,274.619367 L1644.24076,275.367461 L1646.70315,275.02508 L1649.23781,275.842442 L1650.14636,274.203759 L1650.51288,271.504286 L1650.97748,263.235667 L1651.41111,260.67473 L1652.30418,258.345346 L1656.40299,252.354654 L1657.48706,249.78976 L1657.9465,247.347568 L1658.02394,244.602577 L1657.55933,239.118531 L1656.90373,236.646653 L1657.73485,234.342997 L1658.23043,231.831538 L1658.03487,228.427355 L1659.53477,227.056019 L1660.15261,225.323151 L1661.03872,222.720731 L1662.87599,222.384131 L1665.68068,223.652615 L1663.44506,221.707813 L1652.07187,221.33693 L1650.22647,220.495429 L1649.49482,218.363627 L1649.47856,212.68817 L1650.66547,209.072833 L1651.29957,207.233998 L1654.29123,207.648515 L1655.39684,206.049663 L1653.40511,203.861761 L1652.64907,202.244209 L1654.96598,200.374206 L1656.77886,198.519788 L1659.60793,196.144885 L1663.55074,194.742384 L1671.23313,193.950749 L1673.48501,195.213001 L1680.85034,193.810499 L1695.8371,191.89998 L1699.83275,192.959648 L1699.50757,195.680501 L1700.90585,198.457455 L1702.96261,200.87599 L1704.63729,201.945008 L1704.98686,203.730861 L1706.65341,204.821695 L1706.02744,206.90363 L1704.04384,208.075499 L1702.0765,208.237565 L1702.10901,211.295019 L1703.24715,212.925037 L1705.28765,212.451303 L1706.82413,213.754072 L1707.99478,215.016322 L1709.2386,216.063524 L1710.68565,215.913924 L1712.88875,213.454871 L1714.00249,210.818168 L1714.27076,208.190815 L1712.82371,206.648064 L1710.86043,207.128031 L1709.90928,205.843962 L1710.69378,201.982409 L1711.78313,200.252656 L1714.71382,199.850606 L1716.40882,201.193891 L1717.62825,202.989093 L1719.64437,203.936561 L1723.9083,204.703262 L1725.83906,205.557229 L1724.64402,207.065697 L1723.54654,208.287432 L1722.73765,209.939267 L1722.43279,212.164569 L1722.4897,216.465574 L1722.78236,218.36051 L1723.07502,213.090221 L1723.11567,210.830635 L1723.87985,209.166333 L1726.06668,207.502031 L1726.52194,205.320362 L1724.99359,201.945008 L1724.09121,200.458357 L1723.29859,197.85282 L1722.59132,196.110602 L1722.54254,193.545582 L1724.71718,188.163093 L1726.04229,183.547304 L1726.89589,181.502769 L1728.58683,179.673283 L1730.82245,178.8349 L1732.45648,179.140334 L1733.68404,180.405701 L1735.45627,181.770803 L1737.34638,182.665287 L1741.25261,183.544188 L1743.39474,183.488088 L1747.02456,182.668404 L1749.02442,182.814887 L1753.93058,180.929302 L1757.88153,180.963585 L1759.41394,180.870085 L1761.93002,180.929302 L1763.46243,182.506337 L1768.32388,190.329178 L1770.33187,192.482798 L1771.73421,193.529999 L1773.10403,196.652903 L1776.53469,201.268691 L1778.22563,202.284725 L1780.03851,202.693009 L1783.00578,204.559895 L1786.3714,205.245562 L1789.11917,205.806563 L1787.27377,203.556327 L1782.79441,203.082593 L1780.96527,202.415625 L1777.3639,200.283823 L1775.72174,198.588355 L1775.13641,196.144885 L1774.99008,194.056716 L1774.29501,192.305147 L1771.94964,191.114579 L1769.97824,189.849211 L1768.81165,187.545992 L1768.02309,185.074473 L1766.12891,182.889687 L1762.97466,180.411934 L1761.08862,179.364733 L1759.22289,178.9658 L1752.87781,178.8349 L1750.97957,178.037032 L1749.12604,178.049499 L1747.44323,178.485833 L1745.68726,177.270331 L1744.01664,175.394096 L1739.88685,167.808121 L1741.80948,167.00402 L1743.94348,167.23777 L1745.90676,168.431455 L1748.07327,168.284971 L1748.86183,165.928769 L1749.12604,163.101949 L1747.61802,161.571664 L1747.07741,159.916712 L1745.85798,159.103261 L1744.1142,159.393111 L1742.4883,160.103712 L1741.25261,161.010663 L1739.88685,158.869511 L1739.0048,157.149109 L1739.26901,155.241707 L1740.55347,152.71097 L1740.81362,150.604101 L1742.92729,150.055568 L1744.31744,149.594301 L1745.87017,147.425098 L1743.34596,147.939349 L1741.09815,147.481198 L1738.49264,148.201149 L1736.95616,148.366332 L1735.17174,148.088949 L1732.73695,149.806234 L1730.82245,149.54755 L1729.39978,148.378799 L1728.36734,146.695797 L1728.22507,144.704245 L1730.29809,143.357843 L1731.83051,143.08046 L1730.76148,141.646792 L1730.65173,139.471356 L1735.76519,138.904122 L1741.25261,138.904122 L1743.57765,138.006521 L1745.68726,136.335985 L1747.61395,135.485134 L1748.7846,133.671233 L1748.78867,131.816814 L1747.5164,130.059012 L1743.43945,126.125774 L1742.6143,124.498872 L1741.1266,124.171622 L1739.51289,124.785606 L1740.88272,123.164938 L1739.13894,119.001067 L1737.05778,117.137298 L1734.35878,115.027312 L1732.66378,114.279311 L1732.94425,112.368792 L1732.29389,110.810458 L1731.32241,109.277056 L1730.3672,105.939102 L1730.59076,104.1626 L1731.26948,101.946937 L1733.02095,102.43101 L1734.86387,102.502256 L1738.26579,101.37022 L1743.42286,101.821452 Z M1717.66077,102.105598 L1720.0671,102.638548 L1730.95252,102.152348 L1729.70058,103.031249 L1723.45711,102.722699 L1722.67668,103.096699 L1721.29873,104.053517 L1720.54268,104.24675 L1717.09983,104.24675 L1716.77465,104.09715 L1716.34379,103.430183 L1715.92105,103.246299 L1715.44141,103.264999 L1715.11623,103.380316 L1713.60414,104.315317 L1713.34806,104.52725 L1713.21393,105.088251 L1713.14076,106.59672 L1712.99443,106.908386 L1713.16515,111.090958 L1713.03508,112.456059 L1712.78306,113.51261 L1712.47008,113.737011 L1712.14083,112.661759 L1712.10018,110.642157 L1712.67738,102.329998 L1713.14889,100.703096 L1716.92911,91.3250359 L1719.03059,89 L1721.40847,90.1220009 L1718.35991,90.2684851 L1717.96969,90.6456017 L1719.35171,90.7733854 L1719.76225,91.7052697 L1719.31919,92.7587042 L1717.28681,93.7685056 L1716.34379,95.015173 L1715.8235,96.5516916 L1716.26249,97.9728929 L1715.96983,100.687513 L1717.66077,102.105598 Z" id="Shape"></path>
        </g>
    </g>
</svg>