<?xml version="1.0" encoding="UTF-8" standalone="no"?>
<svg width="300px" height="69px" viewBox="0 0 300 69" version="1.1" xmlns="http://www.w3.org/2000/svg" xmlns:xlink="http://www.w3.org/1999/xlink">
    <!-- Generator: Sketch 43.1 (39012) - http://www.bohemiancoding.com/sketch -->
    <title>rp-online-seeklogo.com</title>
    <desc>Created with Sketch.</desc>
    <defs>
        <polygon id="path-1" points="0.18 0.313259722 0.18 48.0424721 131.409107 48.0424721 131.409107 0.313259722 0.18 0.313259722"></polygon>
        <polygon id="path-3" points="0.18 0.952666667 0.18 68.817 300 68.817 300 34.8848333 300 0.952666667 0.18 0.952666667"></polygon>
    </defs>
    <g id="Page-1" stroke="none" stroke-width="1" fill="none" fill-rule="evenodd">
        <g id="rp-online-seeklogo.com">
            <g id="Group-4">
                <mask id="mask-2" fill="white">
                    <use xlink:href="#path-1"></use>
                </mask>
                <g id="Clip-2"></g>
                <path d="M121.131,36.411 C120.261,39.033 118.794,41.613 116.388,43.101 C113.649,44.694 110.013,44.844 107.292,43.125 C104.91,41.631 103.428,39.084 102.483,36.507 C100.917,32.037 100.617,27.237 100.71,22.536 C100.833,18.39 101.241,14.148 102.87,10.29 C104.013,7.521 106.209,4.968 109.236,4.275 C111.456,3.711 113.928,3.939 115.899,5.154 C118.332,6.609 119.874,9.156 120.852,11.751 C122.307,15.681 122.703,19.911 122.73,24.075 C122.709,28.224 122.421,32.436 121.131,36.411 Z M129.123,12.486 C127.311,8.22 124.164,4.407 119.991,2.295 C116.253,0.339 111.837,-0.12 107.73,0.702 C102.699,1.698 98.307,5.046 95.7,9.423 C92.307,15.018 91.446,21.837 92.184,28.254 C92.877,34.104 95.331,39.987 99.93,43.827 C106.188,49.269 116.232,49.428 122.775,44.385 C127.476,40.842 130.17,35.184 131.025,29.457 C131.862,23.772 131.376,17.805 129.123,12.486 L129.123,12.486 Z" id="Fill-1" fill="#0B0B09" mask="url(#mask-2)"></path>
                <path d="M19.197,28.116 C17.001,28.653 14.736,28.296 12.51,28.227 C12.51,20.367 12.507,12.507 12.51,4.65 C15.966,4.599 19.74,4.581 22.665,6.693 C25.224,8.499 26.313,11.694 26.514,14.706 C26.715,17.919 26.466,21.333 24.81,24.171 C23.631,26.232 21.507,27.645 19.197,28.116 Z M30.366,40.14 C28.2,37.08 26.037,34.026 23.874,30.972 C27.093,29.847 30.162,28.038 32.283,25.317 C34.677,22.359 35.592,18.417 35.268,14.67 C35.052,10.815 33.333,6.918 30.141,4.629 C26.247,1.722 21.216,1.041 16.482,0.966 C10.992,0.933 5.499,0.96 0.003,0.954 C0.003,1.686 0.003,2.418 0,3.15 C1.242,3.216 2.715,3.261 3.564,4.32 C4.503,5.52 4.557,7.137 4.581,8.604 C4.587,21.516 4.581,34.431 4.584,47.349 L12.528,47.349 C12.531,42.276 12.522,37.203 12.531,32.133 L16.071,32.133 C19.329,37.197 22.569,42.279 25.824,47.349 L36.822,47.349 L36.822,45.459 C33.801,45.147 32.01,42.369 30.366,40.14 L30.366,40.14 Z" id="Fill-3" fill="#0B0B09" mask="url(#mask-2)"></path>
            </g>
            <path d="M62.058,26.319 C59.202,29.082 54.924,28.953 51.228,28.938 L51.228,4.65 C54.525,4.656 58.188,4.368 60.993,6.435 C63.99,8.667 64.668,12.666 64.779,16.164 C64.842,19.668 64.623,23.646 62.058,26.319 Z M72.24,9.747 C70.908,6.495 68.13,3.954 64.872,2.694 C61.353,1.23 57.48,0.969 53.712,0.951 C48.714,0.954 43.719,0.951 38.724,0.954 C38.718,1.686 38.718,2.418 38.715,3.15 C39.897,3.216 41.259,3.234 42.141,4.143 C43.257,5.334 43.272,7.074 43.32,8.607 C43.332,21.519 43.32,34.434 43.326,47.349 L51.252,47.349 C51.252,42.432 51.249,37.515 51.252,32.595 C56.475,32.655 61.965,32.331 66.636,29.763 C69.948,28.011 72.357,24.735 73.104,21.072 C73.869,17.325 73.695,13.308 72.24,9.747 L72.24,9.747 Z" id="Fill-5" fill="#0B0B09"></path>
            <path d="M140.226,0.954 C142.938,0.951 145.656,0.951 148.371,0.954 C154.548,11.979 160.704,23.01 166.884,34.035 C166.875,23.007 166.881,11.982 166.881,0.954 C168.603,0.951 170.325,0.951 172.053,0.954 C172.056,16.419 172.053,31.884 172.053,47.349 C169.539,47.352 167.031,47.349 164.517,47.349 C158.124,36.078 151.725,24.813 145.335,13.542 C145.326,24.81 145.332,36.078 145.332,47.349 L140.226,47.349 L140.226,0.954" id="Fill-6" fill="#0B0B09"></path>
            <path d="M184.254,0.954 C186.855,0.951 189.459,0.951 192.066,0.954 C192.069,15.039 192.063,29.124 192.066,43.206 L205.83,43.206 L205.83,47.349 C198.639,47.349 191.445,47.352 184.254,47.349 L184.254,0.954" id="Fill-7" fill="#0B0B09"></path>
            <path d="M212.43,0.972 L220.146,0.972 C220.149,16.431 220.146,31.89 220.146,47.349 C217.569,47.349 215.001,47.352 212.43,47.346 L212.43,0.972" id="Fill-8" fill="#0B0B09"></path>
            <path d="M232.254,0.954 C234.963,0.951 237.681,0.954 240.396,0.954 C246.567,11.979 252.726,23.01 258.903,34.035 C258.903,23.007 258.918,11.982 258.927,0.954 C260.643,0.951 262.359,0.951 264.078,0.954 C264.081,16.419 264.081,31.884 264.078,47.349 C261.573,47.352 259.065,47.346 256.563,47.352 C250.158,36.081 243.759,24.813 237.36,13.542 C237.36,24.81 237.375,36.078 237.381,47.349 L232.254,47.349 C232.251,31.884 232.251,16.419 232.254,0.954" id="Fill-9" fill="#0B0B09"></path>
            <g id="Group-13">
                <mask id="mask-4" fill="white">
                    <use xlink:href="#path-3"></use>
                </mask>
                <g id="Clip-11"></g>
                <path d="M276.285,47.349 C276.285,31.884 276.282,16.419 276.285,0.954 C283.509,0.954 290.739,0.951 297.963,0.954 C297.963,2.286 297.963,3.618 297.966,4.95 C293.394,4.953 288.822,4.95 284.25,4.953 C284.247,10.257 284.247,15.564 284.25,20.868 C288.045,20.856 291.837,20.901 295.629,20.889 L295.629,24.927 C291.837,24.933 288.045,24.924 284.25,24.933 C284.247,31.02 284.247,37.113 284.25,43.206 C289.5,43.209 294.75,43.203 300,43.206 L300,47.346 C292.095,47.352 284.19,47.349 276.285,47.349" id="Fill-10" fill="#0B0B09" mask="url(#mask-4)"></path>
                <path d="M68.061,47.313 C72.186,47.307 76.314,47.307 80.439,47.313 C80.445,51.444 80.445,55.578 80.436,59.712 C76.317,59.718 72.189,59.712 68.067,59.715 C68.052,62.808 68.067,65.904 68.058,68.994 C45.375,69 22.689,69 0.006,68.994 C-8.67361738e-19,64.872 0.003,60.747 0.006,56.625 C22.689,56.613 45.375,56.628 68.055,56.619 C68.061,53.514 68.052,50.412 68.061,47.313" id="Fill-12" fill="#F9C724" mask="url(#mask-4)"></path>
            </g>
        </g>
    </g>
</svg>